ISO-10303-21;
HEADER;
/*Generated by software containing ST-Developer
 * from STEP Tools, Inc. (www.steptools.com) 
 */
/*OPTION: using custom renumber hook */
/*description */
/*implementation_level */
FILE_DESCRIPTION(('STEP AP242 Edition 2','STEP AP242 Edition 2''CAx-IF Rec.Pracs.---Representation and Presentation of Product Manufa
cturing Information (PMI)---4.0---2014-10-13','STEP AP242 Edition 2''CAx-IF Rec.Pracs.---Representation and Presentation of Product Manufa
cturing Information (PMI)---4.0---2014-10-13''CAx-IF Rec.Pracs.---3D Tessellated Geometry---0.4---2014-09-14','STEP AP242 Edition 2''CAx-IF Rec.Pracs.---Representation and Presentation of Product Manufa
cturing Information (PMI)---4.0---2014-10-13''CAx-IF Rec.Pracs.---3D Tessellated Geometry---0.4---2014-09-14''2;1','STEP AP242 Edition 2''CAx-IF Rec.Pracs.---Representation and Presentation of Product Manufa
cturing Information (PMI)---4.0---2014-10-13''CAx-IF Rec.Pracs.---3D Tessellated Geometry---0.4---2014-09-14''2;1''CAx-IF Rec.Pracs.---User Defined Attributes---1.5---2016-08-15'),'2;1');
/*name */
/*time_stamp */
/*author */
/*organization */
/*preprocessor_version */
/*originating_system */
/*authorisation */
FILE_NAME('/vol/tmp/translate-9939033224751826202/PicoTel Case - keycaps.step','2026-03-16T20:27:46',(''),(''),'ST-DEVELOPER v20','ONSHAPE BY PTC INC, 1.212','  ');
FILE_SCHEMA(('AP242_MANAGED_MODEL_BASED_3D_ENGINEERING_MIM_LF { 1 0 10303 442 3 1 4 }'));
ENDSEC;
DATA;
#10=SHAPE_REPRESENTATION_RELATIONSHIP('','',#649,#11);
#11=ADVANCED_BREP_SHAPE_REPRESENTATION('',(#647),#1383);
#12=CIRCLE('',#682,0.0028);
#13=B_SPLINE_SURFACE_WITH_KNOTS('',3,3,((#888,#889,#890,#891,#892),(#893,
#894,#895,#896,#897),(#898,#899,#900,#901,#902),(#903,#904,#905,#906,#907),(#908,#909,#910,#911,#912)),.UNSPECIFIED.,.F.,.F.,.F.,(4,1,4),(4,1,4),(0.,0.5,1.),(2.01812746691514E-14,0.0471644904197043,0.11005047764595),.UNSPECIFIED.);
#14=B_SPLINE_SURFACE_WITH_KNOTS('',3,3,((#923,#924,#925,#926,#927,#928,
#929,#930),(#931,#932,#933,#934,#935,#936,#937,#938),(#939,#940,#941,#942,
#943,#944,#945,#946),(#947,#948,#949,#950,#951,#952,#953,#954),(#955,#956,
#957,#958,#959,#960,#961,#962)),.UNSPECIFIED.,.F.,.F.,.F.,(4,1,4),(4,1,1,1,1,4),(0.,0.5,1.),(0.141556285543564,0.303480109637152,0.627327757824327,0.951175406011501,1.11309923010509,1.27502305419868),.UNSPECIFIED.);
#15=B_SPLINE_SURFACE_WITH_KNOTS('',3,3,((#996,#997,#998,#999,#1000),(#1001,
#1002,#1003,#1004,#1005),(#1006,#1007,#1008,#1009,#1010),(#1011,#1012,#1013,
#1014,#1015),(#1016,#1017,#1018,#1019,#1020)),.UNSPECIFIED.,.F.,.F.,.F.,(4,1,4),(4,1,4),(0.,0.5,1.),(0.,0.0628850888844119,0.110048905547721),.UNSPECIFIED.);
#16=B_SPLINE_SURFACE_WITH_KNOTS('',3,3,((#1061,#1062,#1063,#1064,#1065),(#1066,#1067,#1068,#1069,#1070),(#1071,#1072,#1073,#1074,#1075),(#1076,
#1077,#1078,#1079,#1080),(#1081,#1082,#1083,#1084,#1085)),.UNSPECIFIED.,.F.,.F.,.F.,(4,1,4),(4,1,4),(0.,0.5,1.),(2.25749737890518E-17,0.0608675090981763,0.106518140921809),.UNSPECIFIED.);
#17=B_SPLINE_SURFACE_WITH_KNOTS('',3,3,((#1096,#1097,#1098,#1099),(#1100,
#1101,#1102,#1103),(#1104,#1105,#1106,#1107),(#1108,#1109,#1110,#1111),(#1112,#1113,#1114,#1115),(#1116,#1117,#1118,#1119),(#1120,#1121,#1122,
#1123)),.UNSPECIFIED.,.F.,.F.,.F.,(4,1,1,1,4),(4,4),(1.04642931887433,1.16292028086005,1.27941124284578,1.33765672383864,1.45414768582437),(0.0578990592545741,0.921625748902984),.UNSPECIFIED.);
#18=B_SPLINE_SURFACE_WITH_KNOTS('',3,3,((#1139,#1140,#1141,#1142,#1143,
#1144,#1145,#1146),(#1147,#1148,#1149,#1150,#1151,#1152,#1153,#1154),(#1155,
#1156,#1157,#1158,#1159,#1160,#1161,#1162),(#1163,#1164,#1165,#1166,#1167,
#1168,#1169,#1170),(#1171,#1172,#1173,#1174,#1175,#1176,#1177,#1178)),.UNSPECIFIED.,.F.,.F.,.F.,(4,1,4),(4,1,1,1,1,4),(0.,0.571428571428571,1.),(2.96082738929439,3.12241120156436,3.4455788261043,3.76874645064424,3.93033026291421,4.09191407518419),.UNSPECIFIED.);
#19=B_SPLINE_SURFACE_WITH_KNOTS('',3,3,((#1206,#1207,#1208,#1209,#1210),(#1211,#1212,#1213,#1214,#1215),(#1216,#1217,#1218,#1219,#1220),(#1221,
#1222,#1223,#1224,#1225),(#1226,#1227,#1228,#1229,#1230)),.UNSPECIFIED.,.F.,.F.,.F.,(4,1,4),(4,1,4),(0.,0.5,1.),(2.81225892217363E-13,0.0456472403814712,0.106510227556391),.UNSPECIFIED.);
#20=B_SPLINE_SURFACE_WITH_KNOTS('',3,3,((#1290,#1291,#1292,#1293),(#1294,
#1295,#1296,#1297),(#1298,#1299,#1300,#1301),(#1302,#1303,#1304,#1305),(#1306,#1307,#1308,#1309),(#1310,#1311,#1312,#1313),(#1314,#1315,#1316,
#1317)),.UNSPECIFIED.,.F.,.F.,.F.,(4,1,1,1,4),(4,4),(1.09179570300767,1.13704378169037,1.22753993905576,1.31803609642115,1.40853225378654),(0.097879880546841,0.864660470505862),.UNSPECIFIED.);
#21=B_SPLINE_CURVE_WITH_KNOTS('',3,(#869,#870,#871,#872),.UNSPECIFIED.,.F.,.F.,(4,4),(0.,1.),.UNSPECIFIED.);
#22=B_SPLINE_CURVE_WITH_KNOTS('',3,(#874,#875,#876,#877),.UNSPECIFIED.,.F.,.F.,(4,4),(0.,1.),.UNSPECIFIED.);
#23=B_SPLINE_CURVE_WITH_KNOTS('',3,(#883,#884,#885,#886,#887),.UNSPECIFIED.,.F.,.F.,(4,1,4),(0.,0.5,1.),.UNSPECIFIED.);
#24=B_SPLINE_CURVE_WITH_KNOTS('',3,(#913,#914,#915,#916),.UNSPECIFIED.,.F.,.F.,(4,4),(0.,1.),.UNSPECIFIED.);
#25=B_SPLINE_CURVE_WITH_KNOTS('',3,(#918,#919,#920,#921,#922),.UNSPECIFIED.,.F.,.F.,(4,1,4),(0.,0.5,1.),.UNSPECIFIED.);
#26=B_SPLINE_CURVE_WITH_KNOTS('',3,(#963,#964,#965,#966),.UNSPECIFIED.,.F.,.F.,(4,4),(0.,1.),.UNSPECIFIED.);
#27=B_SPLINE_CURVE_WITH_KNOTS('',3,(#969,#970,#971,#972,#973,#974,#975),.UNSPECIFIED.,.F.,.F.,(4,1,1,1,4),(0.,0.25,0.5,0.75,1.),.UNSPECIFIED.);
#28=B_SPLINE_CURVE_WITH_KNOTS('',3,(#976,#977,#978,#979,#980,#981,#982,#983),.UNSPECIFIED.,.F.,.F.,(4,1,1,1,1,4),(-1.27502305419868,-1.11309923010509,-0.951175406011501,-0.627327757824327,-0.303480109637152,-0.141556285543564),.UNSPECIFIED.);
#29=B_SPLINE_CURVE_WITH_KNOTS('',3,(#989,#990,#991,#992,#993,#994,#995),.UNSPECIFIED.,.F.,.F.,(4,1,1,1,4),(0.,0.25,0.5,0.75,1.),.UNSPECIFIED.);
#30=B_SPLINE_CURVE_WITH_KNOTS('',3,(#1021,#1022,#1023,#1024),.UNSPECIFIED.,.F.,.F.,(4,4),(0.,1.),.UNSPECIFIED.);
#31=B_SPLINE_CURVE_WITH_KNOTS('',3,(#1026,#1027,#1028,#1029,#1030),.UNSPECIFIED.,.F.,.F.,(4,1,4),(0.,0.5,1.),.UNSPECIFIED.);
#32=B_SPLINE_CURVE_WITH_KNOTS('',3,(#1032,#1033,#1034,#1035),.UNSPECIFIED.,.F.,.F.,(4,4),(0.,1.),.UNSPECIFIED.);
#33=B_SPLINE_CURVE_WITH_KNOTS('',3,(#1038,#1039,#1040,#1041),.UNSPECIFIED.,.F.,.F.,(4,4),(0.,1.),.UNSPECIFIED.);
#34=B_SPLINE_CURVE_WITH_KNOTS('',3,(#1042,#1043,#1044,#1045),.UNSPECIFIED.,.F.,.F.,(4,4),(1.9578827238325E-08,0.999999980335161),.UNSPECIFIED.);
#35=B_SPLINE_CURVE_WITH_KNOTS('',3,(#1051,#1052,#1053,#1054,#1055,#1056,#1057,#1058,#1059,#1060),.UNSPECIFIED.,.F.,.F.,(4,1,1,1,1,1,1,4),(0.,0.25,0.375,0.5,0.5625,0.625,0.75,1.),.UNSPECIFIED.);
#36=B_SPLINE_CURVE_WITH_KNOTS('',3,(#1086,#1087,#1088,#1089),.UNSPECIFIED.,.F.,.F.,(4,4),(0.,1.),.UNSPECIFIED.);
#37=B_SPLINE_CURVE_WITH_KNOTS('',3,(#1091,#1092,#1093,#1094,#1095),.UNSPECIFIED.,.F.,.F.,(4,1,4),(0.,0.5,1.),.UNSPECIFIED.);
#38=B_SPLINE_CURVE_WITH_KNOTS('',3,(#1124,#1125,#1126,#1127,#1128),.UNSPECIFIED.,.F.,.F.,(4,1,4),(0.,0.5,1.),.UNSPECIFIED.);
#39=B_SPLINE_CURVE_WITH_KNOTS('',3,(#1130,#1131,#1132,#1133,#1134,#1135,#1136,#1137,#1138),.UNSPECIFIED.,.F.,.F.,(4,1,1,1,1,1,4),(0.,0.25,0.375,0.5,0.625,0.75,1.),.UNSPECIFIED.);
#40=B_SPLINE_CURVE_WITH_KNOTS('',3,(#1179,#1180,#1181,#1182),.UNSPECIFIED.,.F.,.F.,(4,4),(0.,1.),.UNSPECIFIED.);
#41=B_SPLINE_CURVE_WITH_KNOTS('',3,(#1184,#1185,#1186,#1187,#1188,#1189,#1190,#1191),.UNSPECIFIED.,.F.,.F.,(4,1,1,1,1,4),(-4.09191407518419,-3.93033026291421,-3.76874645064424,-3.4455788261043,-3.12241120156436,-2.96082738929439),.UNSPECIFIED.);
#42=B_SPLINE_CURVE_WITH_KNOTS('',3,(#1195,#1196,#1197,#1198,#1199,#1200,#1201,#1202,#1203,#1204,#1205),.UNSPECIFIED.,.F.,.F.,(4,1,1,1,1,1,1,1,4),(0.,0.25,0.375,0.4375,0.5,0.5625,0.625,0.75,1.),.UNSPECIFIED.);
#43=B_SPLINE_CURVE_WITH_KNOTS('',3,(#1232,#1233,#1234,#1235,#1236,#1237,#1238),.UNSPECIFIED.,.F.,.F.,(4,1,1,1,4),(5.92737319023864E-15,0.00283041633938967,0.00566083267877341,0.00849124901815715,0.0113216653575409),.UNSPECIFIED.);
#44=B_SPLINE_CURVE_WITH_KNOTS('',3,(#1248,#1249,#1250,#1251,#1252,#1253,#1254),.UNSPECIFIED.,.F.,.F.,(4,1,1,1,4),(2.28326454966356E-11,0.00279585793713803,0.00559171585144341,0.00838757376574879,0.0111834316800542),.UNSPECIFIED.);
#45=B_SPLINE_CURVE_WITH_KNOTS('',3,(#1261,#1262,#1263,#1264),.UNSPECIFIED.,.F.,.F.,(4,4),(0.,1.),.UNSPECIFIED.);
#46=B_SPLINE_CURVE_WITH_KNOTS('',3,(#1284,#1285,#1286,#1287),.UNSPECIFIED.,.F.,.F.,(4,4),(0.,1.),.UNSPECIFIED.);
#47=B_SPLINE_CURVE_WITH_KNOTS('',3,(#1318,#1319,#1320,#1321,#1322,#1323,#1324,#1325,#1326,#1327,#1328),.UNSPECIFIED.,.T.,.F.,(1,1,1,1,1,1,1,1,1,1,1,1,1,1,1),(-0.00656654202037902,-0.00437769468025268,-0.00218884734012634,0.,0.00218884734012634,0.00437769468025268,0.00656654202037902,0.00875538936050536,0.0109442367006317,0.013133084040758,0.0153219313808844,0.0175107787210107,0.0196996260611371,0.0218884734012634,0.0240773207413897),.UNSPECIFIED.);
#48=CYLINDRICAL_SURFACE('',#657,0.000299996058458068);
#49=CYLINDRICAL_SURFACE('',#658,0.001);
#50=CYLINDRICAL_SURFACE('',#660,0.001);
#51=CYLINDRICAL_SURFACE('',#661,0.000300186941276014);
#52=CYLINDRICAL_SURFACE('',#663,0.001);
#53=CYLINDRICAL_SURFACE('',#665,0.001);
#54=CYLINDRICAL_SURFACE('',#669,0.0598229798039918);
#55=CYLINDRICAL_SURFACE('',#689,0.0028);
#56=ELLIPSE('',#652,0.00111072164747907,0.001);
#57=ELLIPSE('',#653,0.00111072164747907,0.001);
#58=ELLIPSE('',#654,0.00103771634384041,0.001);
#59=ELLIPSE('',#655,0.00103771634384041,0.001);
#60=ELLIPSE('',#670,0.0598361779141287,0.0598229798039918);
#61=ELLIPSE('',#671,0.0598361779141287,0.0598229798039918);
#62=ELLIPSE('',#672,198.965096519631,0.0598229798039918);
#63=ELLIPSE('',#673,0.0598361779141287,0.0598229798039918);
#64=ELLIPSE('',#674,198.965096519631,0.0598229798039918);
#65=ELLIPSE('',#675,0.0598361779141287,0.0598229798039918);
#66=ELLIPSE('',#676,198.965096519631,0.0598229798039918);
#67=ELLIPSE('',#677,0.0598361779141287,0.0598229798039918);
#68=ELLIPSE('',#678,198.965096519631,0.0598229798039918);
#69=ELLIPSE('',#679,0.0598361779141287,0.0598229798039918);
#70=ORIENTED_EDGE('',*,*,#250,.T.);
#71=ORIENTED_EDGE('',*,*,#251,.T.);
#72=ORIENTED_EDGE('',*,*,#252,.T.);
#73=ORIENTED_EDGE('',*,*,#253,.T.);
#74=ORIENTED_EDGE('',*,*,#254,.F.);
#75=ORIENTED_EDGE('',*,*,#255,.T.);
#76=ORIENTED_EDGE('',*,*,#256,.F.);
#77=ORIENTED_EDGE('',*,*,#257,.T.);
#78=ORIENTED_EDGE('',*,*,#258,.F.);
#79=ORIENTED_EDGE('',*,*,#259,.T.);
#80=ORIENTED_EDGE('',*,*,#260,.F.);
#81=ORIENTED_EDGE('',*,*,#261,.T.);
#82=ORIENTED_EDGE('',*,*,#262,.F.);
#83=ORIENTED_EDGE('',*,*,#261,.F.);
#84=ORIENTED_EDGE('',*,*,#263,.F.);
#85=ORIENTED_EDGE('',*,*,#264,.F.);
#86=ORIENTED_EDGE('',*,*,#265,.F.);
#87=ORIENTED_EDGE('',*,*,#264,.T.);
#88=ORIENTED_EDGE('',*,*,#266,.F.);
#89=ORIENTED_EDGE('',*,*,#267,.T.);
#90=ORIENTED_EDGE('',*,*,#260,.T.);
#91=ORIENTED_EDGE('',*,*,#268,.T.);
#92=ORIENTED_EDGE('',*,*,#269,.F.);
#93=ORIENTED_EDGE('',*,*,#263,.T.);
#94=ORIENTED_EDGE('',*,*,#270,.T.);
#95=ORIENTED_EDGE('',*,*,#271,.T.);
#96=ORIENTED_EDGE('',*,*,#266,.T.);
#97=ORIENTED_EDGE('',*,*,#269,.T.);
#98=ORIENTED_EDGE('',*,*,#272,.F.);
#99=ORIENTED_EDGE('',*,*,#273,.T.);
#100=ORIENTED_EDGE('',*,*,#270,.F.);
#101=ORIENTED_EDGE('',*,*,#274,.T.);
#102=ORIENTED_EDGE('',*,*,#275,.F.);
#103=ORIENTED_EDGE('',*,*,#274,.F.);
#104=ORIENTED_EDGE('',*,*,#268,.F.);
#105=ORIENTED_EDGE('',*,*,#259,.F.);
#106=ORIENTED_EDGE('',*,*,#258,.T.);
#107=ORIENTED_EDGE('',*,*,#276,.T.);
#108=ORIENTED_EDGE('',*,*,#277,.F.);
#109=ORIENTED_EDGE('',*,*,#275,.T.);
#110=ORIENTED_EDGE('',*,*,#278,.T.);
#111=ORIENTED_EDGE('',*,*,#279,.T.);
#112=ORIENTED_EDGE('',*,*,#272,.T.);
#113=ORIENTED_EDGE('',*,*,#277,.T.);
#114=ORIENTED_EDGE('',*,*,#280,.F.);
#115=ORIENTED_EDGE('',*,*,#281,.T.);
#116=ORIENTED_EDGE('',*,*,#278,.F.);
#117=ORIENTED_EDGE('',*,*,#282,.T.);
#118=ORIENTED_EDGE('',*,*,#283,.F.);
#119=ORIENTED_EDGE('',*,*,#282,.F.);
#120=ORIENTED_EDGE('',*,*,#276,.F.);
#121=ORIENTED_EDGE('',*,*,#257,.F.);
#122=ORIENTED_EDGE('',*,*,#256,.T.);
#123=ORIENTED_EDGE('',*,*,#284,.T.);
#124=ORIENTED_EDGE('',*,*,#285,.F.);
#125=ORIENTED_EDGE('',*,*,#283,.T.);
#126=ORIENTED_EDGE('',*,*,#286,.T.);
#127=ORIENTED_EDGE('',*,*,#287,.T.);
#128=ORIENTED_EDGE('',*,*,#280,.T.);
#129=ORIENTED_EDGE('',*,*,#285,.T.);
#130=ORIENTED_EDGE('',*,*,#288,.F.);
#131=ORIENTED_EDGE('',*,*,#267,.F.);
#132=ORIENTED_EDGE('',*,*,#271,.F.);
#133=ORIENTED_EDGE('',*,*,#273,.F.);
#134=ORIENTED_EDGE('',*,*,#279,.F.);
#135=ORIENTED_EDGE('',*,*,#281,.F.);
#136=ORIENTED_EDGE('',*,*,#287,.F.);
#137=ORIENTED_EDGE('',*,*,#289,.F.);
#138=ORIENTED_EDGE('',*,*,#290,.F.);
#139=ORIENTED_EDGE('',*,*,#289,.T.);
#140=ORIENTED_EDGE('',*,*,#286,.F.);
#141=ORIENTED_EDGE('',*,*,#291,.T.);
#142=ORIENTED_EDGE('',*,*,#292,.F.);
#143=ORIENTED_EDGE('',*,*,#291,.F.);
#144=ORIENTED_EDGE('',*,*,#284,.F.);
#145=ORIENTED_EDGE('',*,*,#255,.F.);
#146=ORIENTED_EDGE('',*,*,#254,.T.);
#147=ORIENTED_EDGE('',*,*,#262,.T.);
#148=ORIENTED_EDGE('',*,*,#293,.F.);
#149=ORIENTED_EDGE('',*,*,#292,.T.);
#150=ORIENTED_EDGE('',*,*,#265,.T.);
#151=ORIENTED_EDGE('',*,*,#288,.T.);
#152=ORIENTED_EDGE('',*,*,#290,.T.);
#153=ORIENTED_EDGE('',*,*,#293,.T.);
#154=ORIENTED_EDGE('',*,*,#294,.F.);
#155=ORIENTED_EDGE('',*,*,#295,.F.);
#156=ORIENTED_EDGE('',*,*,#251,.F.);
#157=ORIENTED_EDGE('',*,*,#296,.F.);
#158=ORIENTED_EDGE('',*,*,#297,.F.);
#159=ORIENTED_EDGE('',*,*,#298,.F.);
#160=ORIENTED_EDGE('',*,*,#252,.F.);
#161=ORIENTED_EDGE('',*,*,#295,.T.);
#162=ORIENTED_EDGE('',*,*,#299,.F.);
#163=ORIENTED_EDGE('',*,*,#300,.F.);
#164=ORIENTED_EDGE('',*,*,#253,.F.);
#165=ORIENTED_EDGE('',*,*,#298,.T.);
#166=ORIENTED_EDGE('',*,*,#301,.T.);
#167=ORIENTED_EDGE('',*,*,#302,.T.);
#168=ORIENTED_EDGE('',*,*,#303,.T.);
#169=ORIENTED_EDGE('',*,*,#304,.T.);
#170=ORIENTED_EDGE('',*,*,#305,.T.);
#171=ORIENTED_EDGE('',*,*,#306,.T.);
#172=ORIENTED_EDGE('',*,*,#307,.T.);
#173=ORIENTED_EDGE('',*,*,#308,.T.);
#174=ORIENTED_EDGE('',*,*,#309,.T.);
#175=ORIENTED_EDGE('',*,*,#310,.T.);
#176=ORIENTED_EDGE('',*,*,#311,.T.);
#177=ORIENTED_EDGE('',*,*,#312,.T.);
#178=ORIENTED_EDGE('',*,*,#313,.F.);
#179=ORIENTED_EDGE('',*,*,#296,.T.);
#180=ORIENTED_EDGE('',*,*,#250,.F.);
#181=ORIENTED_EDGE('',*,*,#300,.T.);
#182=ORIENTED_EDGE('',*,*,#314,.T.);
#183=ORIENTED_EDGE('',*,*,#313,.T.);
#184=ORIENTED_EDGE('',*,*,#299,.T.);
#185=ORIENTED_EDGE('',*,*,#297,.T.);
#186=ORIENTED_EDGE('',*,*,#294,.T.);
#187=ORIENTED_EDGE('',*,*,#315,.F.);
#188=ORIENTED_EDGE('',*,*,#316,.F.);
#189=ORIENTED_EDGE('',*,*,#317,.F.);
#190=ORIENTED_EDGE('',*,*,#318,.F.);
#191=ORIENTED_EDGE('',*,*,#319,.F.);
#192=ORIENTED_EDGE('',*,*,#320,.F.);
#193=ORIENTED_EDGE('',*,*,#321,.F.);
#194=ORIENTED_EDGE('',*,*,#322,.F.);
#195=ORIENTED_EDGE('',*,*,#323,.F.);
#196=ORIENTED_EDGE('',*,*,#324,.F.);
#197=ORIENTED_EDGE('',*,*,#325,.F.);
#198=ORIENTED_EDGE('',*,*,#326,.F.);
#199=ORIENTED_EDGE('',*,*,#327,.F.);
#200=ORIENTED_EDGE('',*,*,#308,.F.);
#201=ORIENTED_EDGE('',*,*,#328,.F.);
#202=ORIENTED_EDGE('',*,*,#315,.T.);
#203=ORIENTED_EDGE('',*,*,#329,.T.);
#204=ORIENTED_EDGE('',*,*,#309,.F.);
#205=ORIENTED_EDGE('',*,*,#329,.F.);
#206=ORIENTED_EDGE('',*,*,#326,.T.);
#207=ORIENTED_EDGE('',*,*,#330,.T.);
#208=ORIENTED_EDGE('',*,*,#310,.F.);
#209=ORIENTED_EDGE('',*,*,#330,.F.);
#210=ORIENTED_EDGE('',*,*,#325,.T.);
#211=ORIENTED_EDGE('',*,*,#331,.T.);
#212=ORIENTED_EDGE('',*,*,#311,.F.);
#213=ORIENTED_EDGE('',*,*,#331,.F.);
#214=ORIENTED_EDGE('',*,*,#324,.T.);
#215=ORIENTED_EDGE('',*,*,#332,.T.);
#216=ORIENTED_EDGE('',*,*,#312,.F.);
#217=ORIENTED_EDGE('',*,*,#332,.F.);
#218=ORIENTED_EDGE('',*,*,#323,.T.);
#219=ORIENTED_EDGE('',*,*,#333,.T.);
#220=ORIENTED_EDGE('',*,*,#307,.F.);
#221=ORIENTED_EDGE('',*,*,#334,.F.);
#222=ORIENTED_EDGE('',*,*,#316,.T.);
#223=ORIENTED_EDGE('',*,*,#328,.T.);
#224=ORIENTED_EDGE('',*,*,#314,.F.);
#225=ORIENTED_EDGE('',*,*,#327,.T.);
#226=ORIENTED_EDGE('',*,*,#301,.F.);
#227=ORIENTED_EDGE('',*,*,#333,.F.);
#228=ORIENTED_EDGE('',*,*,#322,.T.);
#229=ORIENTED_EDGE('',*,*,#335,.T.);
#230=ORIENTED_EDGE('',*,*,#302,.F.);
#231=ORIENTED_EDGE('',*,*,#335,.F.);
#232=ORIENTED_EDGE('',*,*,#321,.T.);
#233=ORIENTED_EDGE('',*,*,#336,.T.);
#234=ORIENTED_EDGE('',*,*,#303,.F.);
#235=ORIENTED_EDGE('',*,*,#336,.F.);
#236=ORIENTED_EDGE('',*,*,#320,.T.);
#237=ORIENTED_EDGE('',*,*,#337,.T.);
#238=ORIENTED_EDGE('',*,*,#304,.F.);
#239=ORIENTED_EDGE('',*,*,#337,.F.);
#240=ORIENTED_EDGE('',*,*,#319,.T.);
#241=ORIENTED_EDGE('',*,*,#338,.T.);
#242=ORIENTED_EDGE('',*,*,#305,.F.);
#243=ORIENTED_EDGE('',*,*,#338,.F.);
#244=ORIENTED_EDGE('',*,*,#318,.T.);
#245=ORIENTED_EDGE('',*,*,#339,.T.);
#246=ORIENTED_EDGE('',*,*,#306,.F.);
#247=ORIENTED_EDGE('',*,*,#339,.F.);
#248=ORIENTED_EDGE('',*,*,#317,.T.);
#249=ORIENTED_EDGE('',*,*,#334,.T.);
#250=EDGE_CURVE('',#340,#341,#398,.T.);
#251=EDGE_CURVE('',#341,#342,#399,.T.);
#252=EDGE_CURVE('',#342,#343,#400,.T.);
#253=EDGE_CURVE('',#343,#340,#401,.T.);
#254=EDGE_CURVE('',#344,#345,#56,.T.);
#255=EDGE_CURVE('',#344,#346,#402,.T.);
#256=EDGE_CURVE('',#347,#346,#57,.T.);
#257=EDGE_CURVE('',#347,#348,#403,.T.);
#258=EDGE_CURVE('',#349,#348,#58,.T.);
#259=EDGE_CURVE('',#349,#350,#404,.T.);
#260=EDGE_CURVE('',#351,#350,#59,.T.);
#261=EDGE_CURVE('',#351,#345,#405,.T.);
#262=EDGE_CURVE('',#345,#352,#406,.T.);
#263=EDGE_CURVE('',#353,#351,#407,.T.);
#264=EDGE_CURVE('',#352,#353,#408,.T.);
#265=EDGE_CURVE('',#352,#354,#21,.F.);
#266=EDGE_CURVE('',#355,#353,#22,.F.);
#267=EDGE_CURVE('',#355,#354,#409,.T.);
#268=EDGE_CURVE('',#350,#356,#410,.T.);
#269=EDGE_CURVE('',#353,#356,#23,.F.);
#270=EDGE_CURVE('',#356,#357,#24,.T.);
#271=EDGE_CURVE('',#357,#355,#25,.T.);
#272=EDGE_CURVE('',#358,#359,#26,.F.);
#273=EDGE_CURVE('',#358,#357,#27,.T.);
#274=EDGE_CURVE('',#356,#359,#28,.T.);
#275=EDGE_CURVE('',#359,#349,#411,.T.);
#276=EDGE_CURVE('',#348,#360,#412,.T.);
#277=EDGE_CURVE('',#359,#360,#29,.F.);
#278=EDGE_CURVE('',#360,#361,#30,.F.);
#279=EDGE_CURVE('',#361,#358,#31,.T.);
#280=EDGE_CURVE('',#362,#363,#32,.F.);
#281=EDGE_CURVE('',#362,#361,#33,.T.);
#282=EDGE_CURVE('',#360,#363,#34,.F.);
#283=EDGE_CURVE('',#363,#347,#413,.T.);
#284=EDGE_CURVE('',#346,#364,#414,.T.);
#285=EDGE_CURVE('',#363,#364,#35,.F.);
#286=EDGE_CURVE('',#364,#365,#36,.T.);
#287=EDGE_CURVE('',#365,#362,#37,.T.);
#288=EDGE_CURVE('',#354,#366,#38,.F.);
#289=EDGE_CURVE('',#366,#365,#39,.F.);
#290=EDGE_CURVE('',#366,#367,#40,.F.);
#291=EDGE_CURVE('',#364,#367,#41,.T.);
#292=EDGE_CURVE('',#367,#344,#415,.T.);
#293=EDGE_CURVE('',#367,#352,#42,.F.);
#294=EDGE_CURVE('',#368,#369,#43,.T.);
#295=EDGE_CURVE('',#342,#368,#416,.T.);
#296=EDGE_CURVE('',#369,#341,#417,.T.);
#297=EDGE_CURVE('',#370,#368,#418,.T.);
#298=EDGE_CURVE('',#343,#370,#419,.T.);
#299=EDGE_CURVE('',#371,#370,#44,.T.);
#300=EDGE_CURVE('',#340,#371,#420,.T.);
#301=EDGE_CURVE('',#372,#373,#60,.T.);
#302=EDGE_CURVE('',#373,#374,#45,.T.);
#303=EDGE_CURVE('',#374,#375,#61,.T.);
#304=EDGE_CURVE('',#375,#376,#62,.T.);
#305=EDGE_CURVE('',#376,#377,#63,.T.);
#306=EDGE_CURVE('',#377,#378,#64,.T.);
#307=EDGE_CURVE('',#378,#379,#65,.T.);
#308=EDGE_CURVE('',#379,#380,#66,.T.);
#309=EDGE_CURVE('',#380,#381,#67,.T.);
#310=EDGE_CURVE('',#381,#382,#68,.T.);
#311=EDGE_CURVE('',#382,#383,#69,.T.);
#312=EDGE_CURVE('',#383,#372,#46,.T.);
#313=EDGE_CURVE('',#369,#371,#421,.T.);
#314=EDGE_CURVE('',#384,#384,#47,.T.);
#315=EDGE_CURVE('',#385,#386,#422,.T.);
#316=EDGE_CURVE('',#387,#385,#423,.T.);
#317=EDGE_CURVE('',#388,#387,#424,.T.);
#318=EDGE_CURVE('',#389,#388,#425,.T.);
#319=EDGE_CURVE('',#390,#389,#426,.T.);
#320=EDGE_CURVE('',#391,#390,#427,.T.);
#321=EDGE_CURVE('',#392,#391,#428,.T.);
#322=EDGE_CURVE('',#393,#392,#429,.T.);
#323=EDGE_CURVE('',#394,#393,#430,.T.);
#324=EDGE_CURVE('',#395,#394,#431,.T.);
#325=EDGE_CURVE('',#396,#395,#432,.T.);
#326=EDGE_CURVE('',#386,#396,#433,.T.);
#327=EDGE_CURVE('',#397,#397,#12,.T.);
#328=EDGE_CURVE('',#385,#379,#434,.T.);
#329=EDGE_CURVE('',#386,#380,#435,.T.);
#330=EDGE_CURVE('',#396,#381,#436,.T.);
#331=EDGE_CURVE('',#395,#382,#437,.T.);
#332=EDGE_CURVE('',#394,#383,#438,.T.);
#333=EDGE_CURVE('',#393,#372,#439,.T.);
#334=EDGE_CURVE('',#387,#378,#440,.T.);
#335=EDGE_CURVE('',#392,#373,#441,.T.);
#336=EDGE_CURVE('',#391,#374,#442,.T.);
#337=EDGE_CURVE('',#390,#375,#443,.T.);
#338=EDGE_CURVE('',#389,#376,#444,.T.);
#339=EDGE_CURVE('',#388,#377,#445,.T.);
#340=VERTEX_POINT('',#839);
#341=VERTEX_POINT('',#840);
#342=VERTEX_POINT('',#842);
#343=VERTEX_POINT('',#844);
#344=VERTEX_POINT('',#847);
#345=VERTEX_POINT('',#848);
#346=VERTEX_POINT('',#850);
#347=VERTEX_POINT('',#852);
#348=VERTEX_POINT('',#854);
#349=VERTEX_POINT('',#856);
#350=VERTEX_POINT('',#858);
#351=VERTEX_POINT('',#860);
#352=VERTEX_POINT('',#864);
#353=VERTEX_POINT('',#866);
#354=VERTEX_POINT('',#873);
#355=VERTEX_POINT('',#878);
#356=VERTEX_POINT('',#882);
#357=VERTEX_POINT('',#917);
#358=VERTEX_POINT('',#967);
#359=VERTEX_POINT('',#968);
#360=VERTEX_POINT('',#988);
#361=VERTEX_POINT('',#1025);
#362=VERTEX_POINT('',#1036);
#363=VERTEX_POINT('',#1037);
#364=VERTEX_POINT('',#1050);
#365=VERTEX_POINT('',#1090);
#366=VERTEX_POINT('',#1129);
#367=VERTEX_POINT('',#1183);
#368=VERTEX_POINT('',#1239);
#369=VERTEX_POINT('',#1240);
#370=VERTEX_POINT('',#1245);
#371=VERTEX_POINT('',#1255);
#372=VERTEX_POINT('',#1259);
#373=VERTEX_POINT('',#1260);
#374=VERTEX_POINT('',#1265);
#375=VERTEX_POINT('',#1267);
#376=VERTEX_POINT('',#1269);
#377=VERTEX_POINT('',#1271);
#378=VERTEX_POINT('',#1273);
#379=VERTEX_POINT('',#1275);
#380=VERTEX_POINT('',#1277);
#381=VERTEX_POINT('',#1279);
#382=VERTEX_POINT('',#1281);
#383=VERTEX_POINT('',#1283);
#384=VERTEX_POINT('',#1329);
#385=VERTEX_POINT('',#1332);
#386=VERTEX_POINT('',#1333);
#387=VERTEX_POINT('',#1335);
#388=VERTEX_POINT('',#1337);
#389=VERTEX_POINT('',#1339);
#390=VERTEX_POINT('',#1341);
#391=VERTEX_POINT('',#1343);
#392=VERTEX_POINT('',#1345);
#393=VERTEX_POINT('',#1347);
#394=VERTEX_POINT('',#1349);
#395=VERTEX_POINT('',#1351);
#396=VERTEX_POINT('',#1353);
#397=VERTEX_POINT('',#1356);
#398=LINE('',#838,#446);
#399=LINE('',#841,#447);
#400=LINE('',#843,#448);
#401=LINE('',#845,#449);
#402=LINE('',#849,#450);
#403=LINE('',#853,#451);
#404=LINE('',#857,#452);
#405=LINE('',#861,#453);
#406=LINE('',#863,#454);
#407=LINE('',#865,#455);
#408=LINE('',#867,#456);
#409=LINE('',#879,#457);
#410=LINE('',#881,#458);
#411=LINE('',#985,#459);
#412=LINE('',#987,#460);
#413=LINE('',#1047,#461);
#414=LINE('',#1049,#462);
#415=LINE('',#1193,#463);
#416=LINE('',#1241,#464);
#417=LINE('',#1242,#465);
#418=LINE('',#1244,#466);
#419=LINE('',#1246,#467);
#420=LINE('',#1256,#468);
#421=LINE('',#1289,#469);
#422=LINE('',#1331,#470);
#423=LINE('',#1334,#471);
#424=LINE('',#1336,#472);
#425=LINE('',#1338,#473);
#426=LINE('',#1340,#474);
#427=LINE('',#1342,#475);
#428=LINE('',#1344,#476);
#429=LINE('',#1346,#477);
#430=LINE('',#1348,#478);
#431=LINE('',#1350,#479);
#432=LINE('',#1352,#480);
#433=LINE('',#1354,#481);
#434=LINE('',#1358,#482);
#435=LINE('',#1359,#483);
#436=LINE('',#1361,#484);
#437=LINE('',#1363,#485);
#438=LINE('',#1365,#486);
#439=LINE('',#1367,#487);
#440=LINE('',#1369,#488);
#441=LINE('',#1372,#489);
#442=LINE('',#1374,#490);
#443=LINE('',#1376,#491);
#444=LINE('',#1378,#492);
#445=LINE('',#1380,#493);
#446=VECTOR('',#700,1.);
#447=VECTOR('',#701,1.);
#448=VECTOR('',#702,1.);
#449=VECTOR('',#703,1.);
#450=VECTOR('',#706,1.);
#451=VECTOR('',#709,1.);
#452=VECTOR('',#712,1.);
#453=VECTOR('',#715,1.);
#454=VECTOR('',#718,1.);
#455=VECTOR('',#719,1.);
#456=VECTOR('',#720,1.);
#457=VECTOR('',#723,1.);
#458=VECTOR('',#726,1.);
#459=VECTOR('',#729,1.);
#460=VECTOR('',#732,1.);
#461=VECTOR('',#737,1.);
#462=VECTOR('',#740,1.);
#463=VECTOR('',#743,1.);
#464=VECTOR('',#748,1.);
#465=VECTOR('',#749,1.);
#466=VECTOR('',#752,1.);
#467=VECTOR('',#753,1.);
#468=VECTOR('',#756,1.);
#469=VECTOR('',#781,1.);
#470=VECTOR('',#784,1.);
#471=VECTOR('',#785,1.);
#472=VECTOR('',#786,1.);
#473=VECTOR('',#787,1.);
#474=VECTOR('',#788,1.);
#475=VECTOR('',#789,1.);
#476=VECTOR('',#790,1.);
#477=VECTOR('',#791,1.);
#478=VECTOR('',#792,1.);
#479=VECTOR('',#793,1.);
#480=VECTOR('',#794,1.);
#481=VECTOR('',#795,1.);
#482=VECTOR('',#800,1.);
#483=VECTOR('',#801,1.);
#484=VECTOR('',#804,1.);
#485=VECTOR('',#807,1.);
#486=VECTOR('',#810,1.);
#487=VECTOR('',#813,1.);
#488=VECTOR('',#816,1.);
#489=VECTOR('',#821,1.);
#490=VECTOR('',#824,1.);
#491=VECTOR('',#827,1.);
#492=VECTOR('',#830,1.);
#493=VECTOR('',#833,1.);
#494=EDGE_LOOP('',(#70,#71,#72,#73));
#495=EDGE_LOOP('',(#74,#75,#76,#77,#78,#79,#80,#81));
#496=EDGE_LOOP('',(#82,#83,#84,#85));
#497=EDGE_LOOP('',(#86,#87,#88,#89));
#498=EDGE_LOOP('',(#90,#91,#92,#93));
#499=EDGE_LOOP('',(#94,#95,#96,#97));
#500=EDGE_LOOP('',(#98,#99,#100,#101));
#501=EDGE_LOOP('',(#102,#103,#104,#105));
#502=EDGE_LOOP('',(#106,#107,#108,#109));
#503=EDGE_LOOP('',(#110,#111,#112,#113));
#504=EDGE_LOOP('',(#114,#115,#116,#117));
#505=EDGE_LOOP('',(#118,#119,#120,#121));
#506=EDGE_LOOP('',(#122,#123,#124,#125));
#507=EDGE_LOOP('',(#126,#127,#128,#129));
#508=EDGE_LOOP('',(#130,#131,#132,#133,#134,#135,#136,#137));
#509=EDGE_LOOP('',(#138,#139,#140,#141));
#510=EDGE_LOOP('',(#142,#143,#144,#145));
#511=EDGE_LOOP('',(#146,#147,#148,#149));
#512=EDGE_LOOP('',(#150,#151,#152,#153));
#513=EDGE_LOOP('',(#154,#155,#156,#157));
#514=EDGE_LOOP('',(#158,#159,#160,#161));
#515=EDGE_LOOP('',(#162,#163,#164,#165));
#516=EDGE_LOOP('',(#166,#167,#168,#169,#170,#171,#172,#173,#174,#175,#176,#177));
#517=EDGE_LOOP('',(#178,#179,#180,#181));
#518=EDGE_LOOP('',(#182));
#519=EDGE_LOOP('',(#183,#184,#185,#186));
#520=EDGE_LOOP('',(#187,#188,#189,#190,#191,#192,#193,#194,#195,#196,#197,#198));
#521=EDGE_LOOP('',(#199));
#522=EDGE_LOOP('',(#200,#201,#202,#203));
#523=EDGE_LOOP('',(#204,#205,#206,#207));
#524=EDGE_LOOP('',(#208,#209,#210,#211));
#525=EDGE_LOOP('',(#212,#213,#214,#215));
#526=EDGE_LOOP('',(#216,#217,#218,#219));
#527=EDGE_LOOP('',(#220,#221,#222,#223));
#528=EDGE_LOOP('',(#224));
#529=EDGE_LOOP('',(#225));
#530=EDGE_LOOP('',(#226,#227,#228,#229));
#531=EDGE_LOOP('',(#230,#231,#232,#233));
#532=EDGE_LOOP('',(#234,#235,#236,#237));
#533=EDGE_LOOP('',(#238,#239,#240,#241));
#534=EDGE_LOOP('',(#242,#243,#244,#245));
#535=EDGE_LOOP('',(#246,#247,#248,#249));
#536=FACE_BOUND('',#494,.T.);
#537=FACE_BOUND('',#495,.T.);
#538=FACE_BOUND('',#496,.T.);
#539=FACE_BOUND('',#497,.T.);
#540=FACE_BOUND('',#498,.T.);
#541=FACE_BOUND('',#499,.T.);
#542=FACE_BOUND('',#500,.T.);
#543=FACE_BOUND('',#501,.T.);
#544=FACE_BOUND('',#502,.T.);
#545=FACE_BOUND('',#503,.T.);
#546=FACE_BOUND('',#504,.T.);
#547=FACE_BOUND('',#505,.T.);
#548=FACE_BOUND('',#506,.T.);
#549=FACE_BOUND('',#507,.T.);
#550=FACE_BOUND('',#508,.T.);
#551=FACE_BOUND('',#509,.T.);
#552=FACE_BOUND('',#510,.T.);
#553=FACE_BOUND('',#511,.T.);
#554=FACE_BOUND('',#512,.T.);
#555=FACE_BOUND('',#513,.T.);
#556=FACE_BOUND('',#514,.T.);
#557=FACE_BOUND('',#515,.T.);
#558=FACE_BOUND('',#516,.T.);
#559=FACE_BOUND('',#517,.T.);
#560=FACE_BOUND('',#518,.T.);
#561=FACE_BOUND('',#519,.T.);
#562=FACE_BOUND('',#520,.T.);
#563=FACE_BOUND('',#521,.T.);
#564=FACE_BOUND('',#522,.T.);
#565=FACE_BOUND('',#523,.T.);
#566=FACE_BOUND('',#524,.T.);
#567=FACE_BOUND('',#525,.T.);
#568=FACE_BOUND('',#526,.T.);
#569=FACE_BOUND('',#527,.T.);
#570=FACE_BOUND('',#528,.T.);
#571=FACE_BOUND('',#529,.T.);
#572=FACE_BOUND('',#530,.T.);
#573=FACE_BOUND('',#531,.T.);
#574=FACE_BOUND('',#532,.T.);
#575=FACE_BOUND('',#533,.T.);
#576=FACE_BOUND('',#534,.T.);
#577=FACE_BOUND('',#535,.T.);
#578=PLANE('',#651);
#579=PLANE('',#656);
#580=PLANE('',#659);
#581=PLANE('',#662);
#582=PLANE('',#664);
#583=PLANE('',#666);
#584=PLANE('',#667);
#585=PLANE('',#668);
#586=PLANE('',#680);
#587=PLANE('',#681);
#588=PLANE('',#683);
#589=PLANE('',#684);
#590=PLANE('',#685);
#591=PLANE('',#686);
#592=PLANE('',#687);
#593=PLANE('',#688);
#594=PLANE('',#690);
#595=PLANE('',#691);
#596=PLANE('',#692);
#597=PLANE('',#693);
#598=PLANE('',#694);
#599=PLANE('',#695);
#600=ADVANCED_FACE('',(#536,#537),#578,.F.);
#601=ADVANCED_FACE('',(#538),#579,.F.);
#602=ADVANCED_FACE('',(#539),#48,.T.);
#603=ADVANCED_FACE('',(#540),#49,.T.);
#604=ADVANCED_FACE('',(#541),#13,.F.);
#605=ADVANCED_FACE('',(#542),#14,.F.);
#606=ADVANCED_FACE('',(#543),#580,.F.);
#607=ADVANCED_FACE('',(#544),#50,.T.);
#608=ADVANCED_FACE('',(#545),#15,.F.);
#609=ADVANCED_FACE('',(#546),#51,.T.);
#610=ADVANCED_FACE('',(#547),#581,.F.);
#611=ADVANCED_FACE('',(#548),#52,.T.);
#612=ADVANCED_FACE('',(#549),#16,.F.);
#613=ADVANCED_FACE('',(#550),#17,.F.);
#614=ADVANCED_FACE('',(#551),#18,.F.);
#615=ADVANCED_FACE('',(#552),#582,.F.);
#616=ADVANCED_FACE('',(#553),#53,.T.);
#617=ADVANCED_FACE('',(#554),#19,.F.);
#618=ADVANCED_FACE('',(#555),#583,.T.);
#619=ADVANCED_FACE('',(#556),#584,.T.);
#620=ADVANCED_FACE('',(#557),#585,.T.);
#621=ADVANCED_FACE('',(#558),#54,.T.);
#622=ADVANCED_FACE('',(#559),#586,.T.);
#623=ADVANCED_FACE('',(#560,#561),#20,.T.);
#624=ADVANCED_FACE('',(#562,#563),#587,.F.);
#625=ADVANCED_FACE('',(#564),#588,.T.);
#626=ADVANCED_FACE('',(#565),#589,.T.);
#627=ADVANCED_FACE('',(#566),#590,.T.);
#628=ADVANCED_FACE('',(#567),#591,.T.);
#629=ADVANCED_FACE('',(#568),#592,.T.);
#630=ADVANCED_FACE('',(#569),#593,.T.);
#631=ADVANCED_FACE('',(#570,#571),#55,.T.);
#632=ADVANCED_FACE('',(#572),#594,.T.);
#633=ADVANCED_FACE('',(#573),#595,.T.);
#634=ADVANCED_FACE('',(#574),#596,.T.);
#635=ADVANCED_FACE('',(#575),#597,.T.);
#636=ADVANCED_FACE('',(#576),#598,.T.);
#637=ADVANCED_FACE('',(#577),#599,.T.);
#638=CLOSED_SHELL('',(#600,#601,#602,#603,#604,#605,#606,#607,#608,#609,#610,#611,#612,#613,#614,#615,#616,#617,#618,#619,#620,#621,#622,#623,#624,#625,#626,#627,#628,#629,#630,#631,#632,#633,#634,#635,#636,#637));
#639=STYLED_ITEM('',(#640),#647);
#640=PRESENTATION_STYLE_ASSIGNMENT((#641));
#641=SURFACE_STYLE_USAGE(.BOTH.,#642);
#642=SURFACE_SIDE_STYLE('',(#643));
#643=SURFACE_STYLE_FILL_AREA(#644);
#644=FILL_AREA_STYLE('',(#645));
#645=FILL_AREA_STYLE_COLOUR('',#646);
#646=COLOUR_RGB('',0.313725490196078,0.309803921568627,0.309803921568627);
#647=MANIFOLD_SOLID_BREP('keycaps',#638);
#648=SHAPE_DEFINITION_REPRESENTATION(#1388,#649);
#649=SHAPE_REPRESENTATION('keycaps',(#650),#1383);
#650=AXIS2_PLACEMENT_3D('',#836,#696,#697);
#651=AXIS2_PLACEMENT_3D('',#837,#698,#699);
#652=AXIS2_PLACEMENT_3D('',#846,#704,#705);
#653=AXIS2_PLACEMENT_3D('',#851,#707,#708);
#654=AXIS2_PLACEMENT_3D('',#855,#710,#711);
#655=AXIS2_PLACEMENT_3D('',#859,#713,#714);
#656=AXIS2_PLACEMENT_3D('',#862,#716,#717);
#657=AXIS2_PLACEMENT_3D('',#868,#721,#722);
#658=AXIS2_PLACEMENT_3D('',#880,#724,#725);
#659=AXIS2_PLACEMENT_3D('',#984,#727,#728);
#660=AXIS2_PLACEMENT_3D('',#986,#730,#731);
#661=AXIS2_PLACEMENT_3D('',#1031,#733,#734);
#662=AXIS2_PLACEMENT_3D('',#1046,#735,#736);
#663=AXIS2_PLACEMENT_3D('',#1048,#738,#739);
#664=AXIS2_PLACEMENT_3D('',#1192,#741,#742);
#665=AXIS2_PLACEMENT_3D('',#1194,#744,#745);
#666=AXIS2_PLACEMENT_3D('',#1231,#746,#747);
#667=AXIS2_PLACEMENT_3D('',#1243,#750,#751);
#668=AXIS2_PLACEMENT_3D('',#1247,#754,#755);
#669=AXIS2_PLACEMENT_3D('',#1257,#757,#758);
#670=AXIS2_PLACEMENT_3D('',#1258,#759,#760);
#671=AXIS2_PLACEMENT_3D('',#1266,#761,#762);
#672=AXIS2_PLACEMENT_3D('',#1268,#763,#764);
#673=AXIS2_PLACEMENT_3D('',#1270,#765,#766);
#674=AXIS2_PLACEMENT_3D('',#1272,#767,#768);
#675=AXIS2_PLACEMENT_3D('',#1274,#769,#770);
#676=AXIS2_PLACEMENT_3D('',#1276,#771,#772);
#677=AXIS2_PLACEMENT_3D('',#1278,#773,#774);
#678=AXIS2_PLACEMENT_3D('',#1280,#775,#776);
#679=AXIS2_PLACEMENT_3D('',#1282,#777,#778);
#680=AXIS2_PLACEMENT_3D('',#1288,#779,#780);
#681=AXIS2_PLACEMENT_3D('',#1330,#782,#783);
#682=AXIS2_PLACEMENT_3D('',#1355,#796,#797);
#683=AXIS2_PLACEMENT_3D('',#1357,#798,#799);
#684=AXIS2_PLACEMENT_3D('',#1360,#802,#803);
#685=AXIS2_PLACEMENT_3D('',#1362,#805,#806);
#686=AXIS2_PLACEMENT_3D('',#1364,#808,#809);
#687=AXIS2_PLACEMENT_3D('',#1366,#811,#812);
#688=AXIS2_PLACEMENT_3D('',#1368,#814,#815);
#689=AXIS2_PLACEMENT_3D('',#1370,#817,#818);
#690=AXIS2_PLACEMENT_3D('',#1371,#819,#820);
#691=AXIS2_PLACEMENT_3D('',#1373,#822,#823);
#692=AXIS2_PLACEMENT_3D('',#1375,#825,#826);
#693=AXIS2_PLACEMENT_3D('',#1377,#828,#829);
#694=AXIS2_PLACEMENT_3D('',#1379,#831,#832);
#695=AXIS2_PLACEMENT_3D('',#1381,#834,#835);
#696=DIRECTION('',(0.,0.,1.));
#697=DIRECTION('',(1.,0.,0.));
#698=DIRECTION('',(2.08644138843417E-18,-0.258819045102521,0.965925826289068));
#699=DIRECTION('',(0.,-0.965925826289068,-0.258819045102521));
#700=DIRECTION('',(0.,0.965925826289068,0.258819045102521));
#701=DIRECTION('',(-1.,-5.40010767816909E-19,2.01534762212699E-18));
#702=DIRECTION('',(0.,-0.965925826289068,-0.258819045102521));
#703=DIRECTION('',(1.,5.40010767816909E-19,-2.01534762212699E-18));
#704=DIRECTION('',(2.08644138843417E-18,-0.258819045102521,0.965925826289068));
#705=DIRECTION('',(0.573462344363328,-0.791317269749735,-0.212032823386242));
#706=DIRECTION('',(-1.,-5.40010767816909E-19,2.01534762212699E-18));
#707=DIRECTION('',(2.08644138843417E-18,-0.258819045102521,0.965925826289068));
#708=DIRECTION('',(-0.573462344363328,-0.791317269749735,-0.212032823386242));
#709=DIRECTION('',(0.,0.965925826289068,0.258819045102521));
#710=DIRECTION('',(2.08644138843417E-18,-0.258819045102521,0.965925826289068));
#711=DIRECTION('',(-1.,-1.48607609152144E-15,-3.96032845543102E-16));
#712=DIRECTION('',(1.,5.40010767816909E-19,-2.01534762212699E-18));
#713=DIRECTION('',(2.08644138843417E-18,-0.258819045102521,0.965925826289068));
#714=DIRECTION('',(1.,-1.48499606998581E-15,-4.00063540787356E-16));
#715=DIRECTION('',(0.,-0.965925826289068,-0.258819045102521));
#716=DIRECTION('',(-0.96365447642385,0.0691439572189121,-0.258048761377349));
#717=DIRECTION('',(0.,-0.965925826289068,-0.258819045102521));
#718=DIRECTION('',(-0.249592436954374,0.111392297860524,0.961922747102141));
#719=DIRECTION('',(0.267151736038295,0.24941213139679,-0.930818746396867));
#720=DIRECTION('',(0.00572503720662215,0.971048883567855,0.238812247739946));
#721=DIRECTION('',(-0.00572503720662215,-0.971048883567855,-0.238812247739946));
#722=DIRECTION('',(0.459727361774439,-0.214638016314218,0.861731556105851));
#723=DIRECTION('',(-0.00565909431740406,-0.971054881395472,-0.238789430188049));
#724=DIRECTION('',(-0.267151736038295,-0.24941213139679,0.930818746396867));
#725=DIRECTION('',(0.681406615000076,0.634120540864655,0.365480730938932));
#726=DIRECTION('',(-0.267151736038295,-0.24941213139679,0.930818746396867));
#727=DIRECTION('',(0.,-0.965925826289068,-0.258819045102521));
#728=DIRECTION('',(1.,5.40010767816909E-19,-2.01534762212699E-18));
#729=DIRECTION('',(-0.267151736038295,0.24941213139679,-0.930818746396867));
#730=DIRECTION('',(0.267151736038295,-0.24941213139679,0.930818746396867));
#731=DIRECTION('',(-0.681406615000076,0.634120540864655,0.365480730938932));
#732=DIRECTION('',(0.267151736038295,-0.24941213139679,0.930818746396867));
#733=DIRECTION('',(0.00567043832104383,-0.971002121480077,-0.239003611291623));
#734=DIRECTION('',(-0.459652366820032,-0.214792279611863,0.861733124752601));
#735=DIRECTION('',(0.96365447642385,0.0691439572189121,-0.258048761377349));
#736=DIRECTION('',(0.,0.965925826289068,0.258819045102521));
#737=DIRECTION('',(-0.249592436954374,-0.111392297860524,-0.961922747102141));
#738=DIRECTION('',(0.249592436954374,0.111392297860524,0.961922747102141));
#739=DIRECTION('',(-0.650177890386765,-0.716872786025621,0.251718333674924));
#740=DIRECTION('',(0.249592436954374,0.111392297860524,0.961922747102141));
#741=DIRECTION('',(-7.68257440978274E-19,0.993361673154162,-0.115032979220593));
#742=DIRECTION('',(-1.,-5.40010767816909E-19,2.01534762212699E-18));
#743=DIRECTION('',(0.249592436954374,-0.111392297860524,-0.961922747102141));
#744=DIRECTION('',(-0.249592436954374,0.111392297860524,0.961922747102141));
#745=DIRECTION('',(0.650177890386766,-0.71687278602562,0.251718333674924));
#746=DIRECTION('',(0.,-0.965925826289068,-0.258819045102521));
#747=DIRECTION('',(1.,5.40010767816909E-19,-2.01534762212699E-18));
#748=DIRECTION('',(0.267151736038295,-0.24941213139679,0.930818746396867));
#749=DIRECTION('',(0.267151736038295,0.24941213139679,-0.930818746396867));
#750=DIRECTION('',(0.96365447642385,0.0691439572189121,-0.258048761377349));
#751=DIRECTION('',(0.,0.965925826289068,0.258819045102521));
#752=DIRECTION('',(-0.00571546233394573,0.971040685931745,0.238845807489928));
#753=DIRECTION('',(0.249592436954374,0.111392297860524,0.961922747102141));
#754=DIRECTION('',(-7.68257440978274E-19,0.993361673154162,-0.115032979220593));
#755=DIRECTION('',(-1.,-5.40010767816909E-19,2.01534762212699E-18));
#756=DIRECTION('',(-0.249592436954374,0.111392297860524,0.961922747102141));
#757=DIRECTION('',(0.000300670724918272,0.971147986227872,0.238477458982324));
#758=DIRECTION('',(-2.98785654770279E-05,0.238477478379817,-0.971148027549289));
#759=DIRECTION('',(0.,0.965925826289068,0.258819045102521));
#760=DIRECTION('',(0.0143161468521665,0.258792520995088,-0.965826836972505));
#761=DIRECTION('',(0.,0.965925826289068,0.258819045102521));
#762=DIRECTION('',(0.0143161468521665,0.258792520995088,-0.965826836972505));
#763=DIRECTION('',(1.,5.40010767816909E-19,-2.01534762212699E-18));
#764=DIRECTION('',(-4.38153917963655E-20,0.971148030125164,0.238477469761849));
#765=DIRECTION('',(0.,-0.965925826289068,-0.258819045102521));
#766=DIRECTION('',(0.0143161468521665,0.258792520995088,-0.965826836972505));
#767=DIRECTION('',(1.,5.40010767816909E-19,-2.01534762212699E-18));
#768=DIRECTION('',(-4.38153917963655E-20,0.971148030125164,0.238477469761849));
#769=DIRECTION('',(0.,-0.965925826289068,-0.258819045102521));
#770=DIRECTION('',(0.0143161468521665,0.258792520995088,-0.965826836972505));
#771=DIRECTION('',(-1.,-5.40010767816909E-19,2.01534762212699E-18));
#772=DIRECTION('',(-4.38153917963655E-20,0.971148030125164,0.238477469761849));
#773=DIRECTION('',(0.,-0.965925826289068,-0.258819045102521));
#774=DIRECTION('',(0.0143161468521665,0.258792520995088,-0.965826836972505));
#775=DIRECTION('',(-1.,-5.40010767816909E-19,2.01534762212699E-18));
#776=DIRECTION('',(-4.38153917963655E-20,0.971148030125164,0.238477469761849));
#777=DIRECTION('',(0.,0.965925826289068,0.258819045102521));
#778=DIRECTION('',(0.0143161468521665,0.258792520995088,-0.965826836972505));
#779=DIRECTION('',(-0.96365447642385,0.0691439572189121,-0.258048761377349));
#780=DIRECTION('',(0.,-0.965925826289068,-0.258819045102521));
#781=DIRECTION('',(-0.00574218667982726,-0.971063563180808,-0.238752138324929));
#782=DIRECTION('',(2.08644138843417E-18,-0.258819045102521,0.965925826289068));
#783=DIRECTION('',(0.,-0.965925826289068,-0.258819045102521));
#784=DIRECTION('',(3.46944695195362E-16,-0.965925826289068,-0.258819045102521));
#785=DIRECTION('',(1.,5.40010767816909E-19,-2.01534762212699E-18));
#786=DIRECTION('',(-3.46944695195362E-16,0.965925826289068,0.258819045102521));
#787=DIRECTION('',(1.,1.89571745858998E-15,5.05795919035498E-16));
#788=DIRECTION('',(0.,0.965925826289068,0.258819045102521));
#789=DIRECTION('',(-1.,-7.4012145382037E-16,-1.96154902780849E-16));
#790=DIRECTION('',(-4.95635278850516E-16,0.965925826289068,0.258819045102521));
#791=DIRECTION('',(-1.,-5.40010767816909E-19,2.01534762212699E-18));
#792=DIRECTION('',(-9.91270557701032E-16,-0.965925826289068,-0.258819045102521));
#793=DIRECTION('',(-1.,4.6169839114003E-16,1.25871754123987E-16));
#794=DIRECTION('',(0.,-0.965925826289068,-0.258819045102521));
#795=DIRECTION('',(1.,-1.29372751457415E-15,-3.48813285827334E-16));
#796=DIRECTION('',(2.08644138843417E-18,-0.258819045102521,0.965925826289068));
#797=DIRECTION('',(1.,5.40010767816909E-19,-2.01534762212699E-18));
#798=DIRECTION('',(-1.,-5.40010767816909E-19,2.01534762212699E-18));
#799=DIRECTION('',(0.,-0.965925826289068,-0.258819045102521));
#800=DIRECTION('',(2.08644138843417E-18,-0.258819045102521,0.965925826289068));
#801=DIRECTION('',(2.08644138843417E-18,-0.258819045102521,0.965925826289068));
#802=DIRECTION('',(0.,-0.965925826289068,-0.258819045102521));
#803=DIRECTION('',(1.,5.40010767816909E-19,-2.01534762212699E-18));
#804=DIRECTION('',(2.08644138843417E-18,-0.258819045102521,0.965925826289068));
#805=DIRECTION('',(-1.,-5.40010767816909E-19,2.01534762212699E-18));
#806=DIRECTION('',(0.,-0.965925826289068,-0.258819045102521));
#807=DIRECTION('',(2.08644138843417E-18,-0.258819045102521,0.965925826289068));
#808=DIRECTION('',(0.,0.965925826289068,0.258819045102521));
#809=DIRECTION('',(-1.,-5.40010767816909E-19,2.01534762212699E-18));
#810=DIRECTION('',(2.08644138843417E-18,-0.258819045102521,0.965925826289068));
#811=DIRECTION('',(-1.,-5.40010767816909E-19,2.01534762212699E-18));
#812=DIRECTION('',(0.,-0.965925826289068,-0.258819045102521));
#813=DIRECTION('',(2.08644138843417E-18,-0.258819045102521,0.965925826289068));
#814=DIRECTION('',(0.,-0.965925826289068,-0.258819045102521));
#815=DIRECTION('',(1.,5.40010767816909E-19,-2.01534762212699E-18));
#816=DIRECTION('',(2.08644138843417E-18,-0.258819045102521,0.965925826289068));
#817=DIRECTION('',(2.08644138843417E-18,-0.258819045102521,0.965925826289068));
#818=DIRECTION('',(1.,5.40010767816909E-19,-2.01534762212699E-18));
#819=DIRECTION('',(0.,0.965925826289068,0.258819045102521));
#820=DIRECTION('',(-1.,-5.40010767816909E-19,2.01534762212699E-18));
#821=DIRECTION('',(2.08644138843417E-18,-0.258819045102521,0.965925826289068));
#822=DIRECTION('',(1.,5.40010767816909E-19,-2.01534762212699E-18));
#823=DIRECTION('',(0.,0.965925826289068,0.258819045102521));
#824=DIRECTION('',(2.08644138843417E-18,-0.258819045102521,0.965925826289068));
#825=DIRECTION('',(0.,0.965925826289068,0.258819045102521));
#826=DIRECTION('',(-1.,-5.40010767816909E-19,2.01534762212699E-18));
#827=DIRECTION('',(2.08644138843417E-18,-0.258819045102521,0.965925826289068));
#828=DIRECTION('',(1.,5.40010767816909E-19,-2.01534762212699E-18));
#829=DIRECTION('',(0.,0.965925826289068,0.258819045102521));
#830=DIRECTION('',(2.08644138843417E-18,-0.258819045102521,0.965925826289068));
#831=DIRECTION('',(0.,-0.965925826289068,-0.258819045102521));
#832=DIRECTION('',(1.,5.40010767816909E-19,-2.01534762212699E-18));
#833=DIRECTION('',(2.08644138843417E-18,-0.258819045102521,0.965925826289068));
#834=DIRECTION('',(1.,5.40010767816909E-19,-2.01534762212699E-18));
#835=DIRECTION('',(0.,0.965925826289068,0.258819045102521));
#836=CARTESIAN_POINT('',(0.,0.,0.));
#837=CARTESIAN_POINT('',(-0.0190500398676207,-0.0236159806899818,0.0163023288066389));
#838=CARTESIAN_POINT('',(-0.0113471852974212,-0.0192693144716811,0.0174670145096002));
#839=CARTESIAN_POINT('',(-0.0113471852974212,-0.0310106640157247,0.0143209293812222));
#840=CARTESIAN_POINT('',(-0.0113471852974212,-0.0161300555362415,0.0183081764061834));
#841=CARTESIAN_POINT('',(-0.0235500398676207,-0.0161300555362415,0.0183081764061834));
#842=CARTESIAN_POINT('',(-0.0267528944378202,-0.0161300555362415,0.0183081764061834));
#843=CARTESIAN_POINT('',(-0.0267528944378202,-0.0279626469082826,0.0151376431036775));
#844=CARTESIAN_POINT('',(-0.0267528944378202,-0.0310106640157247,0.0143209293812222));
#845=CARTESIAN_POINT('',(-0.0145500398676207,-0.0310106640157247,0.0143209293812222));
#846=CARTESIAN_POINT('',(-0.0110877562114611,-0.0312703938378964,0.014251334985121));
#847=CARTESIAN_POINT('',(-0.0109856770147744,-0.0323093131265835,0.0139729574007162));
#848=CARTESIAN_POINT('',(-0.0100500398676207,-0.0313725913671547,0.0142239512396877));
#849=CARTESIAN_POINT('',(-0.0100500398676207,-0.0323093131265835,0.0139729574007162));
#850=CARTESIAN_POINT('',(-0.027114402720467,-0.0323093131265835,0.0139729574007162));
#851=CARTESIAN_POINT('',(-0.0270123235237803,-0.0312703938378964,0.014251334985121));
#852=CARTESIAN_POINT('',(-0.0280500398676207,-0.0313725913671547,0.0142239512396877));
#853=CARTESIAN_POINT('',(-0.0280500398676207,-0.0323093131265835,0.0139729574007162));
#854=CARTESIAN_POINT('',(-0.0280500398676207,-0.0158885740796693,0.018372881167459));
#855=CARTESIAN_POINT('',(-0.0270123235237803,-0.0158885740796693,0.018372881167459));
#856=CARTESIAN_POINT('',(-0.0270123235237803,-0.0149226482533802,0.0186317002125616));
#857=CARTESIAN_POINT('',(-0.0280500398676207,-0.0149226482533802,0.0186317002125616));
#858=CARTESIAN_POINT('',(-0.0110877562114611,-0.0149226482533802,0.0186317002125616));
#859=CARTESIAN_POINT('',(-0.0110877562114611,-0.0158885740796693,0.018372881167459));
#860=CARTESIAN_POINT('',(-0.0100500398676207,-0.0158885740796693,0.018372881167459));
#861=CARTESIAN_POINT('',(-0.0100500398676207,-0.0149226482533802,0.0186317002125616));
#862=CARTESIAN_POINT('',(-0.0100500398676207,-0.0149226482533802,0.0186317002125616));
#863=CARTESIAN_POINT('',(-0.0107646892428902,-0.0310536456609176,0.0169781913066644));
#864=CARTESIAN_POINT('',(-0.012510664671344,-0.0302744229491291,0.0237071298677983));
#865=CARTESIAN_POINT('',(-0.0106923703182352,-0.0164882520346943,0.0206109097637912));
#866=CARTESIAN_POINT('',(-0.0124389984129793,-0.0181188987865493,0.026696566280549));
#867=CARTESIAN_POINT('',(-0.0124332737489911,-0.0171476275559386,0.0269354361410269));
#868=CARTESIAN_POINT('',(-0.0127223675977411,-0.0171268845477347,0.026858022180508));
#869=CARTESIAN_POINT('',(-0.0129003314927146,-0.0303206195183555,0.0239043139836746));
#870=CARTESIAN_POINT('',(-0.0127456099447499,-0.030334628288416,0.0239575667387981));
#871=CARTESIAN_POINT('',(-0.0125545277233627,-0.0303119746021645,0.0238608723960748));
#872=CARTESIAN_POINT('',(-0.0125106660094572,-0.0302744228661134,0.0237071295063391));
#873=CARTESIAN_POINT('',(-0.0129003316390351,-0.0303206196067492,0.0239043143855474));
#874=CARTESIAN_POINT('',(-0.0124390005523195,-0.0181188986326545,0.0266965657078));
#875=CARTESIAN_POINT('',(-0.0124829405996312,-0.0181565171364613,0.0268505818789274));
#876=CARTESIAN_POINT('',(-0.0126746565727936,-0.0181791610073431,0.0269472514188017));
#877=CARTESIAN_POINT('',(-0.0128294913934805,-0.0181650201268677,0.0268934641121449));
#878=CARTESIAN_POINT('',(-0.012829491579232,-0.0181650202496228,0.0268934646145793));
#879=CARTESIAN_POINT('',(-0.0128294913621396,-0.0181650201065433,0.0268934640273002));
#880=CARTESIAN_POINT('',(-0.011656024794659,-0.0164191080774754,0.0203528610024139));
#881=CARTESIAN_POINT('',(-0.011656024794659,-0.0154531822511863,0.0206116800475164));
#882=CARTESIAN_POINT('',(-0.0134038207584621,-0.0170849197926889,0.0267014074570216));
#883=CARTESIAN_POINT('',(-0.0134038207599414,-0.0170849197925982,0.0267014074566831));
#884=CARTESIAN_POINT('',(-0.0131557048844602,-0.0170984153225532,0.0267517734601531));
#885=CARTESIAN_POINT('',(-0.0126375189874535,-0.0173415052615746,0.0268225225729845));
#886=CARTESIAN_POINT('',(-0.0124363712028144,-0.0178634441729387,0.0267552059986371));
#887=CARTESIAN_POINT('',(-0.0124389979785343,-0.0181188988497666,0.0266965665268402));
#888=CARTESIAN_POINT('',(-0.0124389979785343,-0.0181188988497666,0.0266965665268402));
#889=CARTESIAN_POINT('',(-0.0124380979239252,-0.0179011683830129,0.0267515460754717));
#890=CARTESIAN_POINT('',(-0.0126085822270534,-0.0173766113146191,0.0268199833074041));
#891=CARTESIAN_POINT('',(-0.0131113734506693,-0.0171008265999111,0.0267607724697643));
#892=CARTESIAN_POINT('',(-0.0134038207599414,-0.0170849197925982,0.0267014074566831));
#893=CARTESIAN_POINT('',(-0.0124609689275218,-0.0181377081161256,0.0267735746710705));
#894=CARTESIAN_POINT('',(-0.0124603873838454,-0.0179183894033777,0.0268285971130129));
#895=CARTESIAN_POINT('',(-0.0126329872206051,-0.0173938861624312,0.0268908241170011));
#896=CARTESIAN_POINT('',(-0.0131271712507322,-0.0171221656050294,0.0268321843516448));
#897=CARTESIAN_POINT('',(-0.0134177006859813,-0.0171046459435812,0.0267750264543896));
#898=CARTESIAN_POINT('',(-0.0125737578319067,-0.0181701917168819,0.0269083619702787));
#899=CARTESIAN_POINT('',(-0.012573359479592,-0.0179638848853379,0.0269592917881281));
#900=CARTESIAN_POINT('',(-0.0127283348918612,-0.017472654822174,0.0270069495142448));
#901=CARTESIAN_POINT('',(-0.0131774005554745,-0.0172219764500447,0.0269538613670647));
#902=CARTESIAN_POINT('',(-0.0134453584283613,-0.0172049463112077,0.0269053797865244));
#903=CARTESIAN_POINT('',(-0.0127520738909977,-0.0181720907314078,0.0269203583910919));
#904=CARTESIAN_POINT('',(-0.0127513035578089,-0.0180013820220086,0.0269622474892445));
#905=CARTESIAN_POINT('',(-0.012865176224966,-0.0175922640045433,0.0270082157134856));
#906=CARTESIAN_POINT('',(-0.0132354626581388,-0.0173813837165806,0.0269675685895411));
#907=CARTESIAN_POINT('',(-0.0134572612319025,-0.0173696320990265,0.0269289174205733));
#908=CARTESIAN_POINT('',(-0.0128294917239302,-0.0181650203451124,0.0268934650060343));
#909=CARTESIAN_POINT('',(-0.0128286022292716,-0.0180123559683018,0.0269310062217057));
#910=CARTESIAN_POINT('',(-0.0129256957088597,-0.0176453932245885,0.0269799281724066));
#911=CARTESIAN_POINT('',(-0.0132584703425122,-0.0174542389648152,0.0269454711687865));
#912=CARTESIAN_POINT('',(-0.0134575583153128,-0.0174448670043795,0.0269104471482212));
#913=CARTESIAN_POINT('',(-0.0134038207586489,-0.0170849197926685,0.0267014074569455));
#914=CARTESIAN_POINT('',(-0.0134315806107457,-0.0171243720946489,0.0268486454523389));
#915=CARTESIAN_POINT('',(-0.0134569641474117,-0.0172943971937359,0.0269473876931122));
#916=CARTESIAN_POINT('',(-0.0134575583144329,-0.0174448670044209,0.026910447148376));
#917=CARTESIAN_POINT('',(-0.0134575583153147,-0.0174448670043794,0.0269104471482209));
#918=CARTESIAN_POINT('',(-0.0134575583153128,-0.0174448670043795,0.0269104471482212));
#919=CARTESIAN_POINT('',(-0.0132833563391123,-0.0174530674697608,0.0269410931662158));
#920=CARTESIAN_POINT('',(-0.0129461708832366,-0.0176207952962694,0.0269792175949833));
#921=CARTESIAN_POINT('',(-0.0128284539801618,-0.0179869119055,0.0269372630909842));
#922=CARTESIAN_POINT('',(-0.0128294917239302,-0.0181650203451124,0.0268934650060343));
#923=CARTESIAN_POINT('',(-0.0246417795172327,-0.0174452944117972,0.026911917608626));
#924=CARTESIAN_POINT('',(-0.0241280166101323,-0.017420957508001,0.0268210126419105));
#925=CARTESIAN_POINT('',(-0.022538614642209,-0.0173770930941991,0.0266570663786018));
#926=CARTESIAN_POINT('',(-0.0198499307666445,-0.0173506281586519,0.026558191881168));
#927=CARTESIAN_POINT('',(-0.0171710874477043,-0.0173583612371457,0.026587102570046));
#928=CARTESIAN_POINT('',(-0.0150224021349053,-0.0173915636174439,0.026711201569839));
#929=CARTESIAN_POINT('',(-0.013970943361281,-0.01742069967638,0.0268201312534191));
#930=CARTESIAN_POINT('',(-0.0134575583153136,-0.0174448670043795,0.026910447148221));
#931=CARTESIAN_POINT('',(-0.0246420767911714,-0.017370056311718,0.0269303974197819));
#932=CARTESIAN_POINT('',(-0.0241282472598192,-0.0173457142713568,0.0268394867562503));
#933=CARTESIAN_POINT('',(-0.0225387305579814,-0.0173018415829688,0.0266755512366133));
#934=CARTESIAN_POINT('',(-0.0198499613980417,-0.0172753728564158,0.0265766808274419));
#935=CARTESIAN_POINT('',(-0.0171710140348749,-0.0172831076390151,0.026605589173935));
#936=CARTESIAN_POINT('',(-0.0150222537935241,-0.0173163160235657,0.0267296786080414));
#937=CARTESIAN_POINT('',(-0.0139707130884299,-0.0173454585375284,0.0268385992640327));
#938=CARTESIAN_POINT('',(-0.0134572612319031,-0.0173696320990265,0.0269289174205732));
#939=CARTESIAN_POINT('',(-0.0246540449619899,-0.0172053573090033,0.0269068848991025));
#940=CARTESIAN_POINT('',(-0.024136026862244,-0.017180807218435,0.0268152401500084));
#941=CARTESIAN_POINT('',(-0.0225427508788642,-0.0171368403699927,0.0266510842414029));
#942=CARTESIAN_POINT('',(-0.0198505911094255,-0.0171103268811602,0.0265521042381766));
#943=CARTESIAN_POINT('',(-0.0171693239657681,-0.0171180647529165,0.0265809966357981));
#944=CARTESIAN_POINT('',(-0.0150169336610765,-0.0171513617081968,0.0267053159887008));
#945=CARTESIAN_POINT('',(-0.0139629456337856,-0.0171805618042833,0.026814347258585));
#946=CARTESIAN_POINT('',(-0.0134453587394983,-0.0172049450396907,0.0269053818959769));
#947=CARTESIAN_POINT('',(-0.0246818604714279,-0.0171050539801057,0.0267765492674302));
#948=CARTESIAN_POINT('',(-0.0241542696275136,-0.0170800425986566,0.0266832059297944));
#949=CARTESIAN_POINT('',(-0.0225521727231532,-0.0170359003661204,0.026518465476253));
#950=CARTESIAN_POINT('',(-0.0198521192613396,-0.0170093015827062,0.0264191975146469));
#951=CARTESIAN_POINT('',(-0.0171652588183783,-0.0170170389729529,0.0264480742187056));
#952=CARTESIAN_POINT('',(-0.0150044932653109,-0.0170505053323504,0.0265729717054402));
#953=CARTESIAN_POINT('',(-0.0139447347562337,-0.0170798057909091,0.0266823223793958));
#954=CARTESIAN_POINT('',(-0.0134177006859813,-0.0171046459435812,0.0267750264543896));
#955=CARTESIAN_POINT('',(-0.0246958194307729,-0.0170853301501721,0.0267029389319981));
#956=CARTESIAN_POINT('',(-0.0241634022525452,-0.0170600891643043,0.0266087382903067));
#957=CARTESIAN_POINT('',(-0.0225568907462834,-0.0170158680329845,0.0264437027814527));
#958=CARTESIAN_POINT('',(-0.0198528772211098,-0.0169892304011946,0.0263442897862198));
#959=CARTESIAN_POINT('',(-0.0171632376140263,-0.0169969656283383,0.0263731580469279));
#960=CARTESIAN_POINT('',(-0.0149982602647283,-0.0170305103504322,0.0264983486541079));
#961=CARTESIAN_POINT('',(-0.0139356178327883,-0.017059853898368,0.026607860265879));
#962=CARTESIAN_POINT('',(-0.0134038207599414,-0.0170849197925982,0.0267014074566832));
#963=CARTESIAN_POINT('',(-0.0246958194307729,-0.0170853301501721,0.0267029389319981));
#964=CARTESIAN_POINT('',(-0.0246679015120829,-0.0171247778100393,0.0268501596028624));
#965=CARTESIAN_POINT('',(-0.02464237406511,-0.0172948182116388,0.0269488772309378));
#966=CARTESIAN_POINT('',(-0.0246417795172327,-0.0174452944117972,0.026911917608626));
#967=CARTESIAN_POINT('',(-0.0246417795172325,-0.0174452944117971,0.026911917608626));
#968=CARTESIAN_POINT('',(-0.0246958194330857,-0.0170853301503085,0.0267029389325075));
#969=CARTESIAN_POINT('',(-0.0246417795172327,-0.0174452944117972,0.026911917608626));
#970=CARTESIAN_POINT('',(-0.0237426944298071,-0.0174027048301538,0.0267528339168739));
#971=CARTESIAN_POINT('',(-0.0218635620740848,-0.0173684151387567,0.0266246192106606));
#972=CARTESIAN_POINT('',(-0.0190472756259311,-0.0173497347196913,0.0265548678171067));
#973=CARTESIAN_POINT('',(-0.0162298084967051,-0.0173684914677087,0.0266249466249929));
#974=CARTESIAN_POINT('',(-0.0143559821457565,-0.0174025741803804,0.0267523943323176));
#975=CARTESIAN_POINT('',(-0.0134575583153136,-0.0174448670043795,0.026910447148221));
#976=CARTESIAN_POINT('',(-0.0134038207599414,-0.0170849197925982,0.0267014074566832));
#977=CARTESIAN_POINT('',(-0.0139356178327883,-0.017059853898368,0.026607860265879));
#978=CARTESIAN_POINT('',(-0.0149982602647283,-0.0170305103504322,0.0264983486541079));
#979=CARTESIAN_POINT('',(-0.0171632376140263,-0.0169969656283383,0.0263731580469279));
#980=CARTESIAN_POINT('',(-0.0198528772211098,-0.0169892304011946,0.0263442897862198));
#981=CARTESIAN_POINT('',(-0.0225568907462834,-0.0170158680329845,0.0264437027814527));
#982=CARTESIAN_POINT('',(-0.0241634022525452,-0.0170600891643043,0.0266087382903067));
#983=CARTESIAN_POINT('',(-0.0246958194307729,-0.0170853301501721,0.0267029389319981));
#984=CARTESIAN_POINT('',(-0.0280500398676207,-0.0149226482533802,0.0186317002125616));
#985=CARTESIAN_POINT('',(-0.0270863853911969,-0.0148535042961613,0.0183736514511842));
#986=CARTESIAN_POINT('',(-0.0270863853911969,-0.0158194301224504,0.0181148324060816));
#987=CARTESIAN_POINT('',(-0.0280500398676207,-0.0158885740796693,0.018372881167459));
#988=CARTESIAN_POINT('',(-0.0256602370432072,-0.0181196347898415,0.0266993121366053));
#989=CARTESIAN_POINT('',(-0.0256602896675075,-0.0181196383420805,0.0266993263497288));
#990=CARTESIAN_POINT('',(-0.0256608092215948,-0.01799271389279,0.0267313954363062));
#991=CARTESIAN_POINT('',(-0.0256162322143115,-0.0177380058310398,0.0267824009034476));
#992=CARTESIAN_POINT('',(-0.0253853763430067,-0.0173852911711956,0.026795807821395));
#993=CARTESIAN_POINT('',(-0.0251389608869329,-0.0171925139121385,0.0267757995477053));
#994=CARTESIAN_POINT('',(-0.0248526476958032,-0.0170938908803135,0.0267348880118354));
#995=CARTESIAN_POINT('',(-0.0246958194307729,-0.0170853301501721,0.0267029389319981));
#996=CARTESIAN_POINT('',(-0.0246958194307729,-0.0170853301501721,0.0267029389319981));
#997=CARTESIAN_POINT('',(-0.0249882319348176,-0.0171012919701707,0.0267625092552134));
#998=CARTESIAN_POINT('',(-0.0254908732879469,-0.017377265621977,0.0268222580017352));
#999=CARTESIAN_POINT('',(-0.0256611808855799,-0.0179019182513045,0.026754336117191));
#1000=CARTESIAN_POINT('',(-0.0256602896675075,-0.0181196383420805,0.0266993263497288));
#1001=CARTESIAN_POINT('',(-0.0246818604714279,-0.0171050539801057,0.0267765492674302));
#1002=CARTESIAN_POINT('',(-0.0249723341950599,-0.0171226082488398,0.0268339282529441));
#1003=CARTESIAN_POINT('',(-0.0254663206652572,-0.0173944138412217,0.0268931678803688));
#1004=CARTESIAN_POINT('',(-0.0256388369553732,-0.0179191240043891,0.0268316062300969));
#1005=CARTESIAN_POINT('',(-0.0256382622636329,-0.0181385126829283,0.0267765278818162));
#1006=CARTESIAN_POINT('',(-0.0246540452759941,-0.0172053585849603,0.0269068827824745));
#1007=CARTESIAN_POINT('',(-0.0249219018054993,-0.0172224099034617,0.0269556071775085));
#1008=CARTESIAN_POINT('',(-0.0253706418329917,-0.017473098199783,0.0270093795127403));
#1009=CARTESIAN_POINT('',(-0.0255253761163487,-0.0179646508837593,0.0269626014601295));
#1010=CARTESIAN_POINT('',(-0.0255249881147161,-0.0181710968388499,0.026911591251672));
#1011=CARTESIAN_POINT('',(-0.0246420767911713,-0.017370056311718,0.0269303974197818));
#1012=CARTESIAN_POINT('',(-0.0248637508364103,-0.0173818519052364,0.026969257546686));
#1013=CARTESIAN_POINT('',(-0.0252336063032971,-0.0175928505670642,0.0270104592765252));
#1014=CARTESIAN_POINT('',(-0.0253468536809061,-0.0180021281450347,0.0269650091196358));
#1015=CARTESIAN_POINT('',(-0.025346103078319,-0.0181728788033816,0.026923073510264));
#1016=CARTESIAN_POINT('',(-0.0246417795172325,-0.0174452944117972,0.026911917608626));
#1017=CARTESIAN_POINT('',(-0.0248407419045042,-0.0174547192426117,0.0269471219196857));
#1018=CARTESIAN_POINT('',(-0.0251730659674319,-0.0176460406077854,0.0269820374279336));
#1019=CARTESIAN_POINT('',(-0.0252694720544923,-0.018013055566109,0.0269333602429472));
#1020=CARTESIAN_POINT('',(-0.0252686049957945,-0.018165711453194,0.0268957934787971));
#1021=CARTESIAN_POINT('',(-0.0252686499932868,-0.0181656820472062,0.026895672946409));
#1022=CARTESIAN_POINT('',(-0.0254235948527552,-0.0181799664070512,0.0269500324802902));
#1023=CARTESIAN_POINT('',(-0.0256159799324883,-0.0181573388305836,0.0268535412770951));
#1024=CARTESIAN_POINT('',(-0.0256601844217155,-0.0181196307585026,0.0266992980413675));
#1025=CARTESIAN_POINT('',(-0.0252686049957945,-0.018165711453194,0.0268957934787971));
#1026=CARTESIAN_POINT('',(-0.0252686049957945,-0.018165711453194,0.0268957934787971));
#1027=CARTESIAN_POINT('',(-0.0252696165642752,-0.0179876129182615,0.0269396213703056));
#1028=CARTESIAN_POINT('',(-0.0251526634670622,-0.0176214287513403,0.0269812841668353));
#1029=CARTESIAN_POINT('',(-0.0248158716060952,-0.0174535411387598,0.0269427213808033));
#1030=CARTESIAN_POINT('',(-0.0246417795172325,-0.0174452944117972,0.026911917608626));
#1031=CARTESIAN_POINT('',(-0.0253355091827936,-0.0241761714185808,0.0251256218723931));
#1032=CARTESIAN_POINT('',(-0.0255892130840302,-0.0302743717123305,0.0237074797597871));
#1033=CARTESIAN_POINT('',(-0.0255452019295903,-0.0303119319627522,0.0238611203082352));
#1034=CARTESIAN_POINT('',(-0.0253542383649255,-0.0303345865784875,0.0239576900942354));
#1035=CARTESIAN_POINT('',(-0.0251995374265676,-0.030320600175863,0.0239045377427623));
#1036=CARTESIAN_POINT('',(-0.0251995046451264,-0.0303206220479882,0.0239046273983866));
#1037=CARTESIAN_POINT('',(-0.0255892656911438,-0.0302743752570229,0.0237074939627111));
#1038=CARTESIAN_POINT('',(-0.0251995374265911,-0.0303206001717334,0.0239045377437786));
#1039=CARTESIAN_POINT('',(-0.0252225742118291,-0.0262689612855132,0.0249015848128827));
#1040=CARTESIAN_POINT('',(-0.0252456117295195,-0.022217321910501,0.0258986298787896));
#1041=CARTESIAN_POINT('',(-0.0252686499932826,-0.0181656820479403,0.0268956729462283));
#1042=CARTESIAN_POINT('',(-0.0255893182969384,-0.0302743790453004,0.0237075081052901));
#1043=CARTESIAN_POINT('',(-0.0256129754199962,-0.0262227988905674,0.0247047808338251));
#1044=CARTESIAN_POINT('',(-0.025636632543054,-0.0221712187358345,0.0257020535623601));
#1045=CARTESIAN_POINT('',(-0.0256602896661118,-0.0181196385811015,0.0266993262908952));
#1046=CARTESIAN_POINT('',(-0.0280500398676207,-0.0323093131265835,0.0139729574007162));
#1047=CARTESIAN_POINT('',(-0.0275756765471784,-0.0311608845505156,0.0160521351137359));
#1048=CARTESIAN_POINT('',(-0.0266120220707546,-0.0310917405932967,0.0157940863523586));
#1049=CARTESIAN_POINT('',(-0.0266120220707546,-0.0320851022664509,0.0159091193315791));
#1050=CARTESIAN_POINT('',(-0.02468407541466,-0.0312246659054959,0.0233393754976985));
#1051=CARTESIAN_POINT('',(-0.02468407541466,-0.0312246659054959,0.0233393754976985));
#1052=CARTESIAN_POINT('',(-0.0247999981339972,-0.0312217416619197,0.0233646276602632));
#1053=CARTESIAN_POINT('',(-0.0249791579009321,-0.0311806119275076,0.0234120555071527));
#1054=CARTESIAN_POINT('',(-0.0251869629149867,-0.0310675664055186,0.0234797444529201));
#1055=CARTESIAN_POINT('',(-0.0253244644372124,-0.0309386013747144,0.0235346587245605));
#1056=CARTESIAN_POINT('',(-0.025349784421009,-0.0309079378654377,0.0235467677045379));
#1057=CARTESIAN_POINT('',(-0.0254009135711243,-0.0308452355796644,0.0235713037451552));
#1058=CARTESIAN_POINT('',(-0.0254979804091619,-0.0306980142471228,0.0236227877957485));
#1059=CARTESIAN_POINT('',(-0.0255830305208005,-0.0304698162125876,0.0236786218766872));
#1060=CARTESIAN_POINT('',(-0.0255893182955489,-0.030274379283276,0.0237075080467138));
#1061=CARTESIAN_POINT('',(-0.0255893182955488,-0.030274379283276,0.0237075080467138));
#1062=CARTESIAN_POINT('',(-0.0255803684481013,-0.0305525588894092,0.0236663922584694));
#1063=CARTESIAN_POINT('',(-0.0253753741071931,-0.0310240159635082,0.0235294618978959));
#1064=CARTESIAN_POINT('',(-0.0248962676879666,-0.0312193131852035,0.0233855986523238));
#1065=CARTESIAN_POINT('',(-0.02468407541466,-0.0312246659054959,0.0233393754976985));
#1066=CARTESIAN_POINT('',(-0.0255673794217065,-0.0302931772997561,0.0237843994242681));
#1067=CARTESIAN_POINT('',(-0.0255521895840535,-0.0305714433641807,0.0237365843707787));
#1068=CARTESIAN_POINT('',(-0.025341261798013,-0.0310268037426942,0.0235862412852047));
#1069=CARTESIAN_POINT('',(-0.0248783156731003,-0.0312119266208578,0.0234433288001603));
#1070=CARTESIAN_POINT('',(-0.0246719191115046,-0.0312177783008092,0.0233988530715381));
#1071=CARTESIAN_POINT('',(-0.0254548761199608,-0.0303256593810744,0.0239190338456091));
#1072=CARTESIAN_POINT('',(-0.0254378607978888,-0.03058477191823,0.0238588523051904));
#1073=CARTESIAN_POINT('',(-0.0252477334394519,-0.0309947820235512,0.0236889287672896));
#1074=CARTESIAN_POINT('',(-0.024834204258195,-0.0311598204571796,0.023552186762953));
#1075=CARTESIAN_POINT('',(-0.0246476378835584,-0.0311657601878622,0.023513224040812));
#1076=CARTESIAN_POINT('',(-0.0252768757679616,-0.0303276391306685,0.0239313001082815));
#1077=CARTESIAN_POINT('',(-0.0252713110966346,-0.0305448089018202,0.0238760721491597));
#1078=CARTESIAN_POINT('',(-0.0251364185864673,-0.0309042111747123,0.0237288596202615));
#1079=CARTESIAN_POINT('',(-0.0247898042304836,-0.0310515720031393,0.0236094899481077));
#1080=CARTESIAN_POINT('',(-0.0246321359155952,-0.0310561326419308,0.0235773931212175));
#1081=CARTESIAN_POINT('',(-0.0251995046451264,-0.0303206220479882,0.0239046273983866));
#1082=CARTESIAN_POINT('',(-0.0251983836551078,-0.0305176329647238,0.0238561457245331));
#1083=CARTESIAN_POINT('',(-0.0250859426342131,-0.0308539470447064,0.0237289977470793));
#1084=CARTESIAN_POINT('',(-0.0247714639187605,-0.0309929771502012,0.0236201589468651));
#1085=CARTESIAN_POINT('',(-0.0246279805210316,-0.0309967431397912,0.0235911196038769));
#1086=CARTESIAN_POINT('',(-0.0246840754160529,-0.0312246659054608,0.0233393754980019));
#1087=CARTESIAN_POINT('',(-0.0246597628096662,-0.0312108906960809,0.0234583306456581));
#1088=CARTESIAN_POINT('',(-0.0246362913112868,-0.0311155221440352,0.0235636666387887));
#1089=CARTESIAN_POINT('',(-0.0246279805219736,-0.0309967431397664,0.0235911196040676));
#1090=CARTESIAN_POINT('',(-0.0246279805210316,-0.0309967431397914,0.0235911196038769));
#1091=CARTESIAN_POINT('',(-0.0246279805210316,-0.0309967431397912,0.0235911196038769));
#1092=CARTESIAN_POINT('',(-0.0247953778183819,-0.0309923494852695,0.0236249988373631));
#1093=CARTESIAN_POINT('',(-0.0251023593758667,-0.0308308405664827,0.0237404729395049));
#1094=CARTESIAN_POINT('',(-0.0251985237788601,-0.0304930066001318,0.0238622059337648));
#1095=CARTESIAN_POINT('',(-0.0251995046451264,-0.0303206220479882,0.0239046273983866));
#1096=CARTESIAN_POINT('',(-0.0128949573901436,-0.0311641408343992,0.0237006898493742));
#1097=CARTESIAN_POINT('',(-0.0128719639584057,-0.0266010971337727,0.0248214453686056));
#1098=CARTESIAN_POINT('',(-0.0128489705266678,-0.0220380534331461,0.025942200887837));
#1099=CARTESIAN_POINT('',(-0.01282597709493,-0.0174750097325197,0.0270629564070685));
#1100=CARTESIAN_POINT('',(-0.0133458854257468,-0.0311251253386646,0.0235418421711931));
#1101=CARTESIAN_POINT('',(-0.0133244402174935,-0.0265620816380381,0.0246625976904245));
#1102=CARTESIAN_POINT('',(-0.0133030908818771,-0.0219990379374116,0.025783353209656));
#1103=CARTESIAN_POINT('',(-0.0132816456736238,-0.0174359942367851,0.0269041087288873));
#1104=CARTESIAN_POINT('',(-0.0153987725465207,-0.0310562043963071,0.0232612374661799));
#1105=CARTESIAN_POINT('',(-0.0153845536837196,-0.0264931606956805,0.0243819929854114));
#1106=CARTESIAN_POINT('',(-0.0153703333711041,-0.0219301169950541,0.0255027485046428));
#1107=CARTESIAN_POINT('',(-0.0153561145083029,-0.0173670732944275,0.0266235040238742));
#1108=CARTESIAN_POINT('',(-0.0195107236032917,-0.0310368113177391,0.0231822804916418));
#1109=CARTESIAN_POINT('',(-0.0195109163023983,-0.0264737676171126,0.0243030360108733));
#1110=CARTESIAN_POINT('',(-0.0195111012297686,-0.0219107239164861,0.0254237915301047));
#1111=CARTESIAN_POINT('',(-0.0195112939288751,-0.0173476802158595,0.0265445470493361));
#1112=CARTESIAN_POINT('',(-0.0232354418579266,-0.0310741716847134,0.0233343894790614));
#1113=CARTESIAN_POINT('',(-0.0232486846447134,-0.0265111279840869,0.0244551449982929));
#1114=CARTESIAN_POINT('',(-0.0232619268364752,-0.0219480842834603,0.0255759005175243));
#1115=CARTESIAN_POINT('',(-0.023275169623262,-0.0173850405828339,0.0266966560367557));
#1116=CARTESIAN_POINT('',(-0.024765728250876,-0.0311256631902539,0.0235440319800003));
#1117=CARTESIAN_POINT('',(-0.0247843651045053,-0.0265626194896275,0.0246647874992317));
#1118=CARTESIAN_POINT('',(-0.0248029068484523,-0.0219995757890009,0.0257855430184631));
#1119=CARTESIAN_POINT('',(-0.0248215437020817,-0.0174365320883744,0.0269062985376945));
#1120=CARTESIAN_POINT('',(-0.0252112092647801,-0.0311647209050488,0.0237030515488511));
#1121=CARTESIAN_POINT('',(-0.0252313755082876,-0.0266016772044223,0.0248238070680825));
#1122=CARTESIAN_POINT('',(-0.025251541751795,-0.0220386335037958,0.0259445625873139));
#1123=CARTESIAN_POINT('',(-0.0252717079953025,-0.0174755898031692,0.0270653181065454));
#1124=CARTESIAN_POINT('',(-0.0134722020855455,-0.0309969255152637,0.0235918222714443));
#1125=CARTESIAN_POINT('',(-0.0133073208711823,-0.030992563775334,0.0236250347135036));
#1126=CARTESIAN_POINT('',(-0.0129963886158736,-0.0308301149431051,0.0237407720056234));
#1127=CARTESIAN_POINT('',(-0.0129013448650821,-0.0304943749224225,0.0238615877725731));
#1128=CARTESIAN_POINT('',(-0.0129003320294043,-0.0303206198645497,0.0239043154529007));
#1129=CARTESIAN_POINT('',(-0.0134720430099734,-0.0309967258379569,0.0235910063267935));
#1130=CARTESIAN_POINT('',(-0.0246277927172921,-0.0309969792885938,0.0235920840989686));
#1131=CARTESIAN_POINT('',(-0.0240209129853339,-0.031013072888778,0.0234699738171155));
#1132=CARTESIAN_POINT('',(-0.022708321381979,-0.0310292081970085,0.0233250073799532));
#1133=CARTESIAN_POINT('',(-0.0206233072060266,-0.0310405224331745,0.0232316510300383));
#1134=CARTESIAN_POINT('',(-0.0190561581371222,-0.0310435449254948,0.0232103668576401));
#1135=CARTESIAN_POINT('',(-0.0174542967363634,-0.0310402211078796,0.0232332336385213));
#1136=CARTESIAN_POINT('',(-0.015372375929483,-0.0310285284593433,0.0233260184583432));
#1137=CARTESIAN_POINT('',(-0.0140720285171419,-0.0310127932228626,0.0234709977088519));
#1138=CARTESIAN_POINT('',(-0.0134722020855482,-0.0309969255152638,0.0235918222714437));
#1139=CARTESIAN_POINT('',(-0.0134720430099719,-0.0309967258379572,0.0235910063267937));
#1140=CARTESIAN_POINT('',(-0.0139805646431071,-0.0310100769688626,0.0234881344295656));
#1141=CARTESIAN_POINT('',(-0.0155698041291098,-0.0310318495172529,0.0233042816168543));
#1142=CARTESIAN_POINT('',(-0.0182464764249506,-0.0310448341366548,0.0231943831217754));
#1143=CARTESIAN_POINT('',(-0.0209255565884134,-0.031041101642517,0.023226773072937));
#1144=CARTESIAN_POINT('',(-0.0230628113744173,-0.0310245749622581,0.0233652222456019));
#1145=CARTESIAN_POINT('',(-0.0241194286510843,-0.031010091032847,0.0234881947191));
#1146=CARTESIAN_POINT('',(-0.0246279805210316,-0.0309967431397912,0.0235911196038769));
#1147=CARTESIAN_POINT('',(-0.0134672971522246,-0.0310646073071702,0.0235753242437472));
#1148=CARTESIAN_POINT('',(-0.0139774322171076,-0.0310776311071354,0.0234718388156808));
#1149=CARTESIAN_POINT('',(-0.015568194964514,-0.0310992931151222,0.0232877912403283));
#1150=CARTESIAN_POINT('',(-0.0182462069456639,-0.031112218876615,0.0231777900629928));
#1151=CARTESIAN_POINT('',(-0.0209262671115511,-0.0311084818299989,0.0232101703545704));
#1152=CARTESIAN_POINT('',(-0.0230649404055419,-0.0310920682179592,0.0233488249765845));
#1153=CARTESIAN_POINT('',(-0.0241225617255209,-0.0310776398378275,0.0234718950514314));
#1154=CARTESIAN_POINT('',(-0.02463272954339,-0.0310646168565221,0.0235754321951233));
#1155=CARTESIAN_POINT('',(-0.0134507126261865,-0.0311725630185701,0.0235055545035374));
#1156=CARTESIAN_POINT('',(-0.0139667616688712,-0.0311849709005636,0.0234008256171864));
#1157=CARTESIAN_POINT('',(-0.0155626777503754,-0.0312064187791836,0.0232164106538135));
#1158=CARTESIAN_POINT('',(-0.0182453504890835,-0.0312192298856594,0.0231062106471775));
#1159=CARTESIAN_POINT('',(-0.020928596336293,-0.0312154865721362,0.0231385699025782));
#1160=CARTESIAN_POINT('',(-0.0230722547102082,-0.031199287342586,0.0232776298358994));
#1161=CARTESIAN_POINT('',(-0.0241332332559294,-0.0311849685829707,0.023400880637739));
#1162=CARTESIAN_POINT('',(-0.0246493215784357,-0.0311725563836047,0.023505662708317));
#1163=CARTESIAN_POINT('',(-0.0134263875199756,-0.0312187761705954,0.0233902360157419));
#1164=CARTESIAN_POINT('',(-0.0139511565392575,-0.0312310502161537,0.0232842317309731));
#1165=CARTESIAN_POINT('',(-0.0155546006927745,-0.0312524462166961,0.0230994715969027));
#1166=CARTESIAN_POINT('',(-0.0182441001487436,-0.0312652299406273,0.022989080287238));
#1167=CARTESIAN_POINT('',(-0.0209320111795156,-0.0312614852376309,0.0230214142198832));
#1168=CARTESIAN_POINT('',(-0.0230829573975983,-0.0312453353971218,0.0231608781052857));
#1169=CARTESIAN_POINT('',(-0.0241488391547772,-0.0312310431095494,0.0232842931840846));
#1170=CARTESIAN_POINT('',(-0.0246736557262411,-0.0312187622443359,0.0233903562752753));
#1171=CARTESIAN_POINT('',(-0.0134159717057657,-0.0312246804613847,0.0233392498010324));
#1172=CARTESIAN_POINT('',(-0.0139444727360793,-0.0312370176458886,0.0232327126468708));
#1173=CARTESIAN_POINT('',(-0.015551141430172,-0.031258429809532,0.0230478089536282));
#1174=CARTESIAN_POINT('',(-0.0182435640780475,-0.0312712225314268,0.0229373380285794));
#1175=CARTESIAN_POINT('',(-0.020933474759033,-0.0312674794361138,0.0229696613453194));
#1176=CARTESIAN_POINT('',(-0.0230875409578864,-0.0312513097715143,0.0231092936941437));
#1177=CARTESIAN_POINT('',(-0.0241555232889308,-0.0312370101884577,0.0232327770451514));
#1178=CARTESIAN_POINT('',(-0.02468407541466,-0.0312246659054959,0.0233393754976985));
#1179=CARTESIAN_POINT('',(-0.0134159717057657,-0.0312246804613847,0.0233392498010324));
#1180=CARTESIAN_POINT('',(-0.0134402752722554,-0.0312109037828763,0.0234582176353546));
#1181=CARTESIAN_POINT('',(-0.0134637377589141,-0.0311155184090799,0.0235635626814623));
#1182=CARTESIAN_POINT('',(-0.0134720430099719,-0.0309967258379572,0.0235910063267937));
#1183=CARTESIAN_POINT('',(-0.0134159717057657,-0.0312246804613847,0.0233392498010323));
#1184=CARTESIAN_POINT('',(-0.02468407541466,-0.0312246659054959,0.0233393754976985));
#1185=CARTESIAN_POINT('',(-0.0241555232889308,-0.0312370101884577,0.0232327770451514));
#1186=CARTESIAN_POINT('',(-0.0230875409578864,-0.0312513097715143,0.0231092936941437));
#1187=CARTESIAN_POINT('',(-0.020933474759033,-0.0312674794361138,0.0229696613453194));
#1188=CARTESIAN_POINT('',(-0.0182435640780475,-0.0312712225314268,0.0229373380285794));
#1189=CARTESIAN_POINT('',(-0.015551141430172,-0.031258429809532,0.0230478089536282));
#1190=CARTESIAN_POINT('',(-0.0139444727360793,-0.0312370176458886,0.0232327126468708));
#1191=CARTESIAN_POINT('',(-0.0134159717057657,-0.0312246804613847,0.0233392498010324));
#1192=CARTESIAN_POINT('',(-0.0100500398676207,-0.0323093131265835,0.0139729574007162));
#1193=CARTESIAN_POINT('',(-0.011728343719314,-0.0319778633768529,0.0168351755245076));
#1194=CARTESIAN_POINT('',(-0.011728343719314,-0.0309845017036987,0.016720142545287));
#1195=CARTESIAN_POINT('',(-0.0125106634010431,-0.030274423037609,0.0237071302083136));
#1196=CARTESIAN_POINT('',(-0.0125169921239618,-0.030470887912141,0.0236781215175952));
#1197=CARTESIAN_POINT('',(-0.0126030932653254,-0.0306989970336767,0.0236219187545896));
#1198=CARTESIAN_POINT('',(-0.0126965199992389,-0.0308417515221711,0.0235720839990155));
#1199=CARTESIAN_POINT('',(-0.0127473006650781,-0.0309044481014246,0.0235477243437385));
#1200=CARTESIAN_POINT('',(-0.0127583475070996,-0.0309188565637956,0.0235421889954212));
#1201=CARTESIAN_POINT('',(-0.0128390990495727,-0.031001176373949,0.0235085923126326));
#1202=CARTESIAN_POINT('',(-0.0129338600068265,-0.0310752237840298,0.023473450953312));
#1203=CARTESIAN_POINT('',(-0.0131245663239759,-0.0311854046364932,0.0234102206572145));
#1204=CARTESIAN_POINT('',(-0.0133000332734523,-0.0312217567354768,0.0233644974933014));
#1205=CARTESIAN_POINT('',(-0.0134159717057657,-0.0312246804613846,0.0233392498010323));
#1206=CARTESIAN_POINT('',(-0.0134159717057657,-0.0312246804613847,0.0233392498010323));
#1207=CARTESIAN_POINT('',(-0.0132037926790674,-0.0312193297480355,0.0233854556248056));
#1208=CARTESIAN_POINT('',(-0.0127246582273326,-0.0310240435633909,0.0235292649865321));
#1209=CARTESIAN_POINT('',(-0.0125196242315395,-0.0305525973962891,0.0236660568410973));
#1210=CARTESIAN_POINT('',(-0.0125106634010431,-0.030274423037609,0.0237071302083136));
#1211=CARTESIAN_POINT('',(-0.0134281234890104,-0.0312177921221305,0.0233987337181935));
#1212=CARTESIAN_POINT('',(-0.0132217374351839,-0.0312119411339629,0.0234431925885438));
#1213=CARTESIAN_POINT('',(-0.0127587536413034,-0.0310268221730306,0.0235860541732986));
#1214=CARTESIAN_POINT('',(-0.0125477908207812,-0.0305714512578632,0.0237362387995054));
#1215=CARTESIAN_POINT('',(-0.0125325953205693,-0.0302931988760415,0.023784001558336));
#1216=CARTESIAN_POINT('',(-0.0134523956770606,-0.0311657656236705,0.0235131164983412));
#1217=CARTESIAN_POINT('',(-0.0132658352100335,-0.0311598247305985,0.0235520631884793));
#1218=CARTESIAN_POINT('',(-0.0128522592544947,-0.0309947829338362,0.0236887576686542));
#1219=CARTESIAN_POINT('',(-0.0126620652858911,-0.0305847348179527,0.023858495928264));
#1220=CARTESIAN_POINT('',(-0.0126450395646242,-0.0303256403136806,0.0239186092819061));
#1221=CARTESIAN_POINT('',(-0.0134678903844421,-0.0310561221235186,0.0235772845041281));
#1222=CARTESIAN_POINT('',(-0.0133102255347044,-0.0310515602128033,0.0236093666663297));
#1223=CARTESIAN_POINT('',(-0.0129635678611471,-0.0309041978535256,0.0237286877080271));
#1224=CARTESIAN_POINT('',(-0.0128285609290302,-0.0305447844866258,0.0238757631920202));
#1225=CARTESIAN_POINT('',(-0.0128229704707201,-0.030327623859167,0.0239309402326013));
#1226=CARTESIAN_POINT('',(-0.0134720430099708,-0.0309967258379572,0.0235910063267939));
#1227=CARTESIAN_POINT('',(-0.0133285622152488,-0.0309929587791978,0.0236200319190343));
#1228=CARTESIAN_POINT('',(-0.0130140414283039,-0.0308539287159287,0.0237288212273298));
#1229=CARTESIAN_POINT('',(-0.0129014799009447,-0.0305176238610096,0.0238558692741356));
#1230=CARTESIAN_POINT('',(-0.0129003315602396,-0.0303206195520075,0.0239043141708049));
#1231=CARTESIAN_POINT('',(-0.0280500398676207,-0.0161300555362415,0.0183081764061834));
#1232=CARTESIAN_POINT('',(-0.0246979961593158,-0.0180485029588516,0.0254679196590137));
#1233=CARTESIAN_POINT('',(-0.0237649587926835,-0.0180082717944135,0.0253177749092827));
#1234=CARTESIAN_POINT('',(-0.0218813641437657,-0.0179732789705282,0.0251871799126428));
#1235=CARTESIAN_POINT('',(-0.0190497894002794,-0.0179552891286052,0.0251200409085659));
#1236=CARTESIAN_POINT('',(-0.0162171278776724,-0.0179732848075648,0.02518720169676));
#1237=CARTESIAN_POINT('',(-0.0143357762429833,-0.0180080566205081,0.0253169718693356));
#1238=CARTESIAN_POINT('',(-0.0134017066442397,-0.0180481510564563,0.0254666063413951));
#1239=CARTESIAN_POINT('',(-0.0246979961593099,-0.0180485029588514,0.0254679196590126));
#1240=CARTESIAN_POINT('',(-0.0134017066442444,-0.0180481510564562,0.0254666063413945));
#1241=CARTESIAN_POINT('',(-0.0268454717720909,-0.0160436255897179,0.0179856154544617));
#1242=CARTESIAN_POINT('',(-0.011896938413765,-0.0166433035447429,0.0202236440507939));
#1243=CARTESIAN_POINT('',(-0.0268454717720909,-0.0322228831800598,0.0136503964489945));
#1244=CARTESIAN_POINT('',(-0.0246272856755121,-0.0300620116956655,0.0225129701531847));
#1245=CARTESIAN_POINT('',(-0.0246272856755121,-0.0300620116956656,0.0225129701531847));
#1246=CARTESIAN_POINT('',(-0.0263926844868539,-0.0308499034789072,0.0157091691443942));
#1247=CARTESIAN_POINT('',(-0.0100500398676207,-0.0310676110351407,0.0138291661766904));
#1248=CARTESIAN_POINT('',(-0.0134727481799851,-0.0300620321929616,0.0225127931497861));
#1249=CARTESIAN_POINT('',(-0.0143931787185452,-0.0300807360935397,0.0223512765299557));
#1250=CARTESIAN_POINT('',(-0.016253125242108,-0.0300972208407184,0.0222089233009081));
#1251=CARTESIAN_POINT('',(-0.0190502517153472,-0.0301056707588087,0.0221359544459845));
#1252=CARTESIAN_POINT('',(-0.0218485965557933,-0.0300972377117922,0.0222087776115746));
#1253=CARTESIAN_POINT('',(-0.0237059770815139,-0.0300807467703841,0.0223511843305867));
#1254=CARTESIAN_POINT('',(-0.0246272858654671,-0.030062011819274,0.0225129690857702));
#1255=CARTESIAN_POINT('',(-0.0134727482320005,-0.03006203215909,0.0225127934422823));
#1256=CARTESIAN_POINT('',(-0.0119476813032147,-0.0307426645893092,0.0166352253373227));
#1257=CARTESIAN_POINT('',(-0.0190480889499493,-0.0397752577922088,0.0813861576077227));
#1258=CARTESIAN_POINT('',(-0.0190490622166717,-0.0429188495661681,0.0806142095740935));
#1259=CARTESIAN_POINT('',(-0.018500040116689,-0.0274327585874481,0.0228193334346107));
#1260=CARTESIAN_POINT('',(-0.019600038947156,-0.0274327650310868,0.0228193575108394));
#1261=CARTESIAN_POINT('',(-0.0196000393604734,-0.027432764470939,0.0228193576523149));
#1262=CARTESIAN_POINT('',(-0.0196000395614029,-0.0269794628720507,0.0229306728281333));
#1263=CARTESIAN_POINT('',(-0.0196000397623278,-0.0265261612732805,0.0230419880044327));
#1264=CARTESIAN_POINT('',(-0.0196000399632482,-0.0260728596746284,0.0231533031812131));
#1265=CARTESIAN_POINT('',(-0.0196000399154345,-0.0260728595687875,0.0231533032067499));
#1266=CARTESIAN_POINT('',(-0.0190486411847896,-0.0415589424297235,0.0809481516745254));
#1267=CARTESIAN_POINT('',(-0.0210500398676207,-0.0260808732458973,0.0231832110774202));
#1268=CARTESIAN_POINT('',(-0.0210500398676207,-6.50595384153033,-1.5064643655297));
#1269=CARTESIAN_POINT('',(-0.0210500398676207,-0.0249152416856843,0.0234694588379858));
#1270=CARTESIAN_POINT('',(-0.0190482803003191,-0.0403933077413424,0.0812343877606101));
#1271=CARTESIAN_POINT('',(-0.0196000398676207,-0.0249072256365824,0.023439542535462));
#1272=CARTESIAN_POINT('',(-0.0196000398676207,-1.82254284295979,-0.356394581987056));
#1273=CARTESIAN_POINT('',(-0.0196000398676207,-0.0235473195065365,0.0237734883918253));
#1274=CARTESIAN_POINT('',(-0.0190478592684369,-0.0390334006048978,0.081568329861042));
#1275=CARTESIAN_POINT('',(-0.0185000398676207,-0.0235473073277904,0.0237734429401266));
#1276=CARTESIAN_POINT('',(-0.0185000398676207,1.73038963871441,0.516072150355643));
#1277=CARTESIAN_POINT('',(-0.0185000398676207,-0.0249072154620773,0.0234395045636928));
#1278=CARTESIAN_POINT('',(-0.0190482803003191,-0.0403933077413424,0.0812343877606101));
#1279=CARTESIAN_POINT('',(-0.0170500398676207,-0.0249152046717363,0.0234693207000531));
#1280=CARTESIAN_POINT('',(-0.0170500398676207,6.41380063728493,1.66614193389829));
#1281=CARTESIAN_POINT('',(-0.0170500398676207,-0.0260808424821648,0.0231830962656075));
#1282=CARTESIAN_POINT('',(-0.0190486411847896,-0.0415589424297235,0.0809481516745254));
#1283=CARTESIAN_POINT('',(-0.0185000402236899,-0.0260728510055178,0.0231532716687329));
#1284=CARTESIAN_POINT('',(-0.0185000397646954,-0.0260728512357326,0.0231532716165329));
#1285=CARTESIAN_POINT('',(-0.0185000399650449,-0.0265261535013116,0.0230419589333611));
#1286=CARTESIAN_POINT('',(-0.0185000401653989,-0.0269794557670081,0.0229306462506675));
#1287=CARTESIAN_POINT('',(-0.0185000403657574,-0.027432758032822,0.0228193335684523));
#1288=CARTESIAN_POINT('',(-0.0112546079631505,-0.0148362183068566,0.0183091392608398));
#1289=CARTESIAN_POINT('',(-0.0134017066442492,-0.0180481510564561,0.025466606341394));
#1290=CARTESIAN_POINT('',(-0.0134538920476319,-0.0301942554466678,0.0224836496190646));
#1291=CARTESIAN_POINT('',(-0.0134364929674215,-0.0261433477207909,0.0234785089159106));
#1292=CARTESIAN_POINT('',(-0.0134190883039781,-0.0220924403573878,0.024473369587395));
#1293=CARTESIAN_POINT('',(-0.0134016782024543,-0.0180415333438969,0.0254682315850033));
#1294=CARTESIAN_POINT('',(-0.0138277652898905,-0.0301791067499578,0.0224229412062598));
#1295=CARTESIAN_POINT('',(-0.0138112840401695,-0.0261282095427934,0.0234178405102018));
#1296=CARTESIAN_POINT('',(-0.0137947876975616,-0.0220773126747837,0.0244127411724116));
#1297=CARTESIAN_POINT('',(-0.0137782973611494,-0.0180264159116026,0.0254076421309631));
#1298=CARTESIAN_POINT('',(-0.0151199036953582,-0.030140557199288,0.0222678218711183));
#1299=CARTESIAN_POINT('',(-0.015106953068162,-0.0260896732224371,0.0232627695097037));
#1300=CARTESIAN_POINT('',(-0.0150940055258302,-0.0220387899158745,0.0242577197681496));
#1301=CARTESIAN_POINT('',(-0.0150810499471236,-0.0179879060367412,0.0252526677500693));
#1302=CARTESIAN_POINT('',(-0.0180729384138547,-0.0301054615135668,0.0221261201121382));
#1303=CARTESIAN_POINT('',(-0.0180687630000292,-0.0260545823872993,0.0231210839001098));
#1304=CARTESIAN_POINT('',(-0.0180645864102351,-0.0220037065848056,0.0241160609739488));
#1305=CARTESIAN_POINT('',(-0.0180604099617325,-0.0179528274312702,0.0251110246626758));
#1306=CARTESIAN_POINT('',(-0.021918837732005,-0.0301201846115726,0.0221856911390345));
#1307=CARTESIAN_POINT('',(-0.0219261432265928,-0.0260693034003227,0.0231806474695741));
#1308=CARTESIAN_POINT('',(-0.0219334505254417,-0.0220184224976589,0.0241756050231007));
#1309=CARTESIAN_POINT('',(-0.0219407592337937,-0.017967541311941,0.0251705614507529));
#1310=CARTESIAN_POINT('',(-0.0239072000529286,-0.030164141881861,0.0223632857110818));
#1311=CARTESIAN_POINT('',(-0.0239202632413536,-0.0261132527345299,0.0233582143203882));
#1312=CARTESIAN_POINT('',(-0.0239333427472161,-0.0220623718308153,0.0243531757695797));
#1313=CARTESIAN_POINT('',(-0.0239464132446009,-0.0180114829207518,0.0253481052532843));
#1314=CARTESIAN_POINT('',(-0.0246533393419903,-0.0301944631249576,0.0224850011212388));
#1315=CARTESIAN_POINT('',(-0.0246682276817228,-0.0261435555377348,0.0234798594497938));
#1316=CARTESIAN_POINT('',(-0.0246831216257573,-0.0220926483126626,0.0244747191654169));
#1317=CARTESIAN_POINT('',(-0.0246980210284665,-0.0180417414371648,0.0254695802191775));
#1318=CARTESIAN_POINT('',(-0.0202360444769675,-0.0227030125250084,0.0239758301387013));
#1319=CARTESIAN_POINT('',(-0.0219172344037947,-0.0243537683462576,0.023643508607892));
#1320=CARTESIAN_POINT('',(-0.0219162055133399,-0.0266610108929149,0.0230771045349089));
#1321=CARTESIAN_POINT('',(-0.020239085446918,-0.0282724639952174,0.0226079545138086));
#1322=CARTESIAN_POINT('',(-0.0178629643810703,-0.0282738657358853,0.0226063442234653));
#1323=CARTESIAN_POINT('',(-0.0161829710092508,-0.0266594961466627,0.0230776527508187));
#1324=CARTESIAN_POINT('',(-0.0161833255425658,-0.0243555687553582,0.023643109658977));
#1325=CARTESIAN_POINT('',(-0.0178596632237837,-0.022704996627197,0.0239741970619191));
#1326=CARTESIAN_POINT('',(-0.0202360444769675,-0.0227030125250084,0.0239758301387013));
#1327=CARTESIAN_POINT('',(-0.0219172344037947,-0.0243537683462576,0.023643508607892));
#1328=CARTESIAN_POINT('',(-0.0219162055133399,-0.0266610108929149,0.0230771045349089));
#1329=CARTESIAN_POINT('',(-0.0216368646009143,-0.0244631828004923,0.023604494850863));
#1330=CARTESIAN_POINT('',(-0.0190500398676207,-0.0236159806899818,0.0163023288066389));
#1331=CARTESIAN_POINT('',(-0.0185000398676207,-0.0230364251942084,0.0164576202337003));
#1332=CARTESIAN_POINT('',(-0.0185000398676207,-0.0216841290374037,0.0168199668968439));
#1333=CARTESIAN_POINT('',(-0.0185000398676207,-0.0230364251942084,0.0164576202337003));
#1334=CARTESIAN_POINT('',(-0.0185000398676207,-0.0216841290374037,0.0168199668968439));
#1335=CARTESIAN_POINT('',(-0.0196000398676207,-0.0216841290374037,0.0168199668968439));
#1336=CARTESIAN_POINT('',(-0.0196000398676207,-0.0216841290374037,0.0168199668968439));
#1337=CARTESIAN_POINT('',(-0.0196000398676207,-0.0230364251942084,0.0164576202337003));
#1338=CARTESIAN_POINT('',(-0.0196000398676207,-0.0230364251942084,0.0164576202337003));
#1339=CARTESIAN_POINT('',(-0.0210500398676207,-0.0230364251942084,0.0164576202337003));
#1340=CARTESIAN_POINT('',(-0.0210500398676207,-0.0230364251942084,0.0164576202337003));
#1341=CARTESIAN_POINT('',(-0.0210500398676207,-0.0241955361857553,0.0161470373795773));
#1342=CARTESIAN_POINT('',(-0.0210500398676207,-0.0241955361857553,0.0161470373795773));
#1343=CARTESIAN_POINT('',(-0.0196000398676207,-0.0241955361857553,0.0161470373795773));
#1344=CARTESIAN_POINT('',(-0.0196000398676207,-0.0241955361857553,0.0161470373795773));
#1345=CARTESIAN_POINT('',(-0.0196000398676207,-0.02554783234256,0.0157846907164338));
#1346=CARTESIAN_POINT('',(-0.0196000398676207,-0.02554783234256,0.0157846907164338));
#1347=CARTESIAN_POINT('',(-0.0185000398676207,-0.02554783234256,0.0157846907164338));
#1348=CARTESIAN_POINT('',(-0.0185000398676207,-0.02554783234256,0.0157846907164338));
#1349=CARTESIAN_POINT('',(-0.0185000398676207,-0.0241955361857553,0.0161470373795773));
#1350=CARTESIAN_POINT('',(-0.0185000398676207,-0.0241955361857553,0.0161470373795773));
#1351=CARTESIAN_POINT('',(-0.0170500398676207,-0.0241955361857553,0.0161470373795773));
#1352=CARTESIAN_POINT('',(-0.0170500398676207,-0.0241955361857553,0.0161470373795773));
#1353=CARTESIAN_POINT('',(-0.0170500398676207,-0.0230364251942084,0.0164576202337003));
#1354=CARTESIAN_POINT('',(-0.0170500398676207,-0.0230364251942084,0.0164576202337003));
#1355=CARTESIAN_POINT('',(-0.0190500398676207,-0.0236159806899818,0.0163023288066389));
#1356=CARTESIAN_POINT('',(-0.0162500398676207,-0.0236159806899818,0.0163023288066389));
#1357=CARTESIAN_POINT('',(-0.0185000398676207,-0.0241955361857553,0.0161470373795773));
#1358=CARTESIAN_POINT('',(-0.0185000398676207,-0.0216841290374037,0.0168199668968439));
#1359=CARTESIAN_POINT('',(-0.0185000398676207,-0.0230364251942084,0.0164576202337003));
#1360=CARTESIAN_POINT('',(-0.0210500398676207,-0.0230364251942084,0.0164576202337003));
#1361=CARTESIAN_POINT('',(-0.0170500398676207,-0.0230364251942084,0.0164576202337003));
#1362=CARTESIAN_POINT('',(-0.0170500398676207,-0.0230364251942084,0.0164576202337003));
#1363=CARTESIAN_POINT('',(-0.0170500398676207,-0.0241955361857553,0.0161470373795773));
#1364=CARTESIAN_POINT('',(-0.0196000398676207,-0.0241955361857553,0.0161470373795773));
#1365=CARTESIAN_POINT('',(-0.0185000398676207,-0.0241955361857553,0.0161470373795773));
#1366=CARTESIAN_POINT('',(-0.0185000398676207,-0.0241955361857553,0.0161470373795773));
#1367=CARTESIAN_POINT('',(-0.0185000398676207,-0.02554783234256,0.0157846907164338));
#1368=CARTESIAN_POINT('',(-0.0196000398676207,-0.0216841290374037,0.0168199668968439));
#1369=CARTESIAN_POINT('',(-0.0196000398676207,-0.0216841290374037,0.0168199668968439));
#1370=CARTESIAN_POINT('',(-0.0190500398676207,-0.0236159806899818,0.0163023288066389));
#1371=CARTESIAN_POINT('',(-0.0185000398676207,-0.02554783234256,0.0157846907164338));
#1372=CARTESIAN_POINT('',(-0.0196000398676207,-0.02554783234256,0.0157846907164338));
#1373=CARTESIAN_POINT('',(-0.0196000398676207,-0.02554783234256,0.0157846907164338));
#1374=CARTESIAN_POINT('',(-0.0196000398676207,-0.0241955361857553,0.0161470373795773));
#1375=CARTESIAN_POINT('',(-0.0196000398676207,-0.0241955361857553,0.0161470373795773));
#1376=CARTESIAN_POINT('',(-0.0210500398676207,-0.0241955361857553,0.0161470373795773));
#1377=CARTESIAN_POINT('',(-0.0210500398676207,-0.0241955361857553,0.0161470373795773));
#1378=CARTESIAN_POINT('',(-0.0210500398676207,-0.0230364251942084,0.0164576202337003));
#1379=CARTESIAN_POINT('',(-0.0210500398676207,-0.0230364251942084,0.0164576202337003));
#1380=CARTESIAN_POINT('',(-0.0196000398676207,-0.0230364251942084,0.0164576202337003));
#1381=CARTESIAN_POINT('',(-0.0196000398676207,-0.02554783234256,0.0157846907164338));
#1382=MECHANICAL_DESIGN_GEOMETRIC_PRESENTATION_REPRESENTATION('',(#639),#1383);
#1383=(
GEOMETRIC_REPRESENTATION_CONTEXT(3)
GLOBAL_UNCERTAINTY_ASSIGNED_CONTEXT((#1384))
GLOBAL_UNIT_ASSIGNED_CONTEXT((#1387,#1386,#1385))
REPRESENTATION_CONTEXT('keycaps','TOP_LEVEL_ASSEMBLY_PART')
);
#1384=UNCERTAINTY_MEASURE_WITH_UNIT(LENGTH_MEASURE(2.E-05),#1387,'DISTANCE_ACCURACY_VALUE','Maximum Tolerance applied to model');
#1385=(
NAMED_UNIT(*)
SI_UNIT($,.STERADIAN.)
SOLID_ANGLE_UNIT()
);
#1386=(
NAMED_UNIT(*)
PLANE_ANGLE_UNIT()
SI_UNIT($,.RADIAN.)
);
#1387=(
LENGTH_UNIT()
NAMED_UNIT(*)
SI_UNIT($,.METRE.)
);
#1388=PRODUCT_DEFINITION_SHAPE('','',#1389);
#1389=PRODUCT_DEFINITION('','',#1391,#1390);
#1390=PRODUCT_DEFINITION_CONTEXT('',#1397,'design');
#1391=PRODUCT_DEFINITION_FORMATION_WITH_SPECIFIED_SOURCE('','',#1393,.NOT_KNOWN.);
#1392=PRODUCT_RELATED_PRODUCT_CATEGORY('','',(#1393));
#1393=PRODUCT('keycaps','keycaps','keycaps',(#1395));
#1394=PRODUCT_CATEGORY('','');
#1395=PRODUCT_CONTEXT('',#1397,'mechanical');
#1396=APPLICATION_PROTOCOL_DEFINITION('international standard','ap242_managed_model_based_3d_engineering',2020,#1397);
#1397=APPLICATION_CONTEXT('managed model based 3d engineering');
ENDSEC;
END-ISO-10303-21;
